<svg xmlns="http://www.w3.org/2000/svg" width="177" height="62" viewBox="0 0 177 62" fill="none"><g clip-path="url(#clip0_1080_368)"><path d="M63.8662 9.43478C63.8662 4.2241 68.1553 0 73.4461 0H84.8507C96.1883 0 105.379 9.05164 105.379 20.2174V24.0597V31V37.9403V42.2319C105.379 53.1497 96.3927 62 85.3069 62H72.9899C67.9509 62 63.8662 57.9772 63.8662 53.0145V9.43478Z" fill="white" fill-opacity="0.9"></path><path d="M76.2965 46.2754H6.1376C3.0799 46.2754 0.887911 43.3709 1.76946 40.4874L7.9503 20.27C8.53062 18.3718 10.3056 17.0725 12.3185 17.0725H76.8339C77.916 26.6183 77.7604 36.2608 76.3709 45.7677L76.2965 46.2754Z" fill="#FDEC04"></path><path d="M103.615 17.0725H170.848C173.91 17.0725 176.102 19.9848 175.213 22.8705L169.396 41.7401C168.812 43.6333 167.039 44.9276 165.03 44.9276H103.098C105.309 35.8235 105.503 26.247 103.615 17.0725Z" fill="#FDEC04"></path><path d="M77.3234 30.6563C77.3234 38.533 76.2034 45.1049 74.474 49.5343C73.6059 51.7574 72.6771 53.2009 71.8738 54.0199C71.116 54.7927 70.6909 54.8115 70.5709 54.8115C70.3665 54.8115 69.7242 54.7172 68.6864 53.7989C67.6541 52.885 66.4867 51.3638 65.3864 49.1628C63.1916 44.7722 61.585 38.3096 61.585 30.6563C61.585 22.9407 63.0584 16.3876 65.1291 11.9287C66.1678 9.69207 67.2722 8.16395 68.2457 7.25695C69.2138 6.35463 69.7899 6.28979 69.9459 6.28979C70.0632 6.28979 70.5449 6.32017 71.3907 7.15914C72.2634 8.02508 73.2629 9.51955 74.1989 11.766C76.0643 16.2418 77.3234 22.843 77.3234 30.6563Z" stroke="#FDEC04" stroke-width="20"></path><path fill-rule="evenodd" clip-rule="evenodd" d="M75.2541 1.25992C72.5909 1.76819 72.4275 2.26658 74.3572 3.99863C75.3001 4.84469 76.2768 5.45121 76.5273 5.34622C76.7777 5.24127 78.1089 5.01694 79.4847 4.84739C81.3952 4.61233 81.7515 4.46114 80.9942 4.20902C80.3962 4.0094 80.0997 3.62898 80.247 3.24946C80.4263 2.7892 80.0928 2.62097 79.0025 2.62097C76.7882 2.62097 77.7006 2.12796 80.2256 1.96018C82.1963 1.82919 82.3286 1.87764 81.5458 2.44198C80.9313 2.8852 80.8679 3.06554 81.3309 3.05522C81.6913 3.0476 82.3696 2.75466 82.8381 2.40475C83.6488 1.79914 83.631 1.75383 82.4727 1.46717C81.8026 1.30119 80.5495 1.27876 79.6873 1.41648C78.8255 1.55465 78.1198 1.47839 78.1198 1.24691C78.1198 0.779465 77.7626 0.780813 75.2541 1.25992ZM84.6551 1.61162C84.8431 1.92026 84.8111 2.17237 84.5844 2.17237C84.3582 2.17237 83.6807 2.60393 83.0795 3.13148L81.9864 4.09104L83.3509 3.79093C84.2464 3.59399 84.4991 3.63302 84.0867 3.90442C83.6127 4.21575 83.7957 4.39115 84.8294 4.61502C87.0031 5.08604 89.7658 7.75658 91.3392 10.9071C92.1256 12.4835 92.6425 13.9746 92.4878 14.2218C92.3332 14.4685 92.6931 16.35 93.2875 18.4027C94.5055 22.608 95.1032 25.8518 94.5457 25.2368C94.3413 25.0111 93.9038 23.8174 93.5731 22.5837C91.8875 16.2939 88.0419 9.79858 86.0041 9.79858C84.9544 9.79858 85.37 10.4289 87.28 11.7329C88.6436 12.6633 89.0678 13.2223 88.8977 13.8634C88.7713 14.3411 88.8543 14.8462 89.0829 14.9853C89.311 15.1248 89.8214 15.8821 90.2169 16.668L90.9354 18.0977L89.508 16.6397C88.1992 15.3029 87.2175 14.7906 87.2175 15.4451C87.2175 15.59 88.3251 16.7918 89.6786 18.1166C92.4536 20.8315 93.782 23.7133 94.4928 28.5627C95.0571 32.4063 95.058 36.3046 94.4951 37.1633C94.1775 37.6478 94.0512 37.2077 94.0439 35.5931C94.0161 29.6263 92.0563 22.4447 89.7535 19.8724C88.399 18.3593 88.1623 18.2363 88.1463 19.0375C88.1358 19.5543 88.5573 20.3614 89.0833 20.831C90.2744 21.8942 91.4263 24.0394 91.1845 24.7451C91.0846 25.0367 90.6576 24.6195 90.2361 23.8174C89.8137 23.0153 89.2553 22.3594 88.9944 22.3594C88.2202 22.3594 89.0268 24.2624 90.4199 25.7239C91.1257 26.4641 91.8382 27.6753 92.0038 28.4155L92.3049 29.7613L91.3903 28.3523C90.1367 26.4224 89.4916 26.1062 89.4916 27.4224C89.4916 28.0154 89.9227 28.8852 90.4496 29.3554C93.0508 31.6751 94.2724 37.1373 93.6023 43.4499C92.9144 49.9315 92.2958 50.1718 92.5631 43.8541C92.8633 36.7501 92.5462 34.6875 90.7315 31.9505C89.2991 29.79 89.2786 29.778 89.1248 31.0345C89.0231 31.863 89.3776 32.8899 90.1398 33.9746C90.784 34.8911 91.3031 36.236 91.2935 36.9632L91.2758 38.2848L90.633 36.8268C90.2794 36.0252 89.7758 35.3689 89.5135 35.3689C88.7029 35.3689 88.9889 36.8555 90.1622 38.7334C90.7785 39.7203 91.2803 41.0324 91.2771 41.6493C91.2716 42.6376 91.1576 42.5586 90.3164 40.9849C89.3766 39.2259 89.3557 39.2156 88.9524 40.2914C88.6354 41.137 88.7553 41.6412 89.4843 42.5258C91.2685 44.6885 91.8711 46.6145 91.6635 49.4835C91.4915 51.8647 90.1987 56.0052 89.7813 55.5128C89.6974 55.4131 89.8278 53.5594 90.0719 51.3934C90.4491 48.0396 90.3994 47.1572 89.7384 45.4495C89.311 44.3462 88.774 43.4437 88.5441 43.4437C87.8813 43.4437 88.0596 45.1682 88.8443 46.3494C89.2393 46.9433 89.4898 47.8953 89.4017 48.4646C89.2476 49.4624 89.2147 49.4512 88.4921 48.1541C87.842 46.9869 87.7002 46.9155 87.4224 47.6163C87.2116 48.1483 87.4324 48.7705 88.0692 49.439C89.467 50.9064 89.3192 51.9366 87.8995 50.6211L86.7627 49.5675V50.5834C86.7627 51.1423 87.1714 51.9343 87.671 52.3441C88.983 53.4201 89.2275 55.4867 88.2585 57.3234C87.0807 59.5581 86.0378 59.7526 86.9643 57.5655C87.3539 56.6468 87.6723 55.4459 87.6723 54.8977C87.6723 53.983 86.4288 52.4155 85.703 52.4155C85.1401 52.4155 85.3905 53.4587 86.1532 54.2894C87.0556 55.2729 86.6304 55.9302 85.6254 55.1071C85.2377 54.7904 84.7847 54.665 84.6182 54.8295C84.4517 54.9939 84.7637 55.4373 85.3116 55.8161C86.5985 56.7047 86.6359 57.5552 85.3586 56.8813C83.9823 56.1544 83.7222 56.7339 84.9758 57.7354C85.942 58.5063 85.9908 58.7125 85.4753 59.829L84.9033 61.0672L87.5387 60.7621C88.988 60.5941 90.4811 60.1403 90.8565 59.7526C91.4701 59.1191 91.4245 59.0778 90.4012 59.342C89.4236 59.5949 89.3794 59.5653 90.0878 59.1286C90.5413 58.8496 91.2288 58.7408 91.617 58.8882C92.0951 59.0688 92.2438 58.9534 92.0782 58.5279C91.9062 58.0854 92.0928 57.9672 92.71 58.1262C93.8573 58.4219 93.8254 59.0091 92.6416 59.3797C92.1224 59.5424 91.8022 59.7787 91.9299 59.9045C92.0577 60.0307 93.0991 59.6722 94.2441 59.1083C95.4416 58.5185 96.1118 57.9528 95.8221 57.7762C95.5288 57.597 95.7984 57.3503 96.4685 57.1846C97.1012 57.0278 97.7486 56.4963 97.9073 56.0034C98.0656 55.5106 98.4205 55.1071 98.6956 55.1071C98.9707 55.1071 99.0902 55.0038 98.962 54.8771C98.8338 54.7508 98.0059 54.9449 97.1222 55.3093C95.6638 55.91 94.6903 57.0385 94.8778 57.911C94.9649 58.3181 94.3691 58.3437 93.3952 57.9753C92.9997 57.8252 92.6758 57.5107 92.6758 57.2758C92.6758 57.0408 92.9125 56.9927 93.2013 57.1688C93.5266 57.3674 93.6028 57.2919 93.4007 56.9702C93.2045 56.6562 93.5184 56.2856 94.1963 56.0313C94.8121 55.8003 95.4508 55.3969 95.615 55.135C96.3125 54.0221 94.7318 54.9018 90.2375 58.128C88.7718 59.1807 87.3503 60.0419 87.0793 60.0419C86.8074 60.0419 87.2787 59.5379 88.1258 58.9215C88.9729 58.3055 89.706 57.5296 89.7553 57.1976C89.8046 56.8665 90.5842 55.5797 91.4879 54.3393C93.1493 52.0588 93.5257 51.2249 92.6525 51.7573C92.3893 51.9173 92.5221 51.273 92.9477 50.3255C93.3733 49.3779 94.7984 45.8323 96.1145 42.4464C97.4311 39.0604 99.1404 35.2006 99.9132 33.8683C100.686 32.5364 101.318 31.2189 101.318 30.9403C101.318 29.9708 100.389 30.4441 99.4501 31.8922L98.5049 33.3501L98.8097 32.0043C98.9775 31.2642 99.6249 29.9977 100.248 29.1903C100.871 28.3823 101.304 27.373 101.21 26.9472C101.08 26.3542 100.806 26.5408 100.043 27.7426C99.1021 29.2261 99.0473 29.2508 99.0473 28.1912C99.0473 27.5744 99.4561 26.409 99.9556 25.601C100.455 24.7931 100.857 23.6828 100.848 23.1337L100.833 22.1351L99.9684 23.1584C99.0679 24.2229 98.5852 26.1039 97.4689 32.9015C97.104 35.1221 96.3905 38.1502 95.8837 39.6306C95.2879 41.3684 95.042 41.7762 95.1885 40.7808C95.3139 39.9329 95.7277 36.703 96.1077 33.6032C96.8932 27.1971 97.7358 23.8811 98.9734 22.3181C100.096 20.9001 100.563 19.3659 99.9793 19.0106C99.7225 18.854 99.0806 19.3924 98.5528 20.2066L97.5926 21.6865L97.8685 20.146C98.0205 19.2986 98.4493 18.2731 98.822 17.8676C99.5916 17.0287 99.7102 15.8125 99.061 15.4164C98.8206 15.2697 98.437 15.813 98.2098 16.6236C97.8681 17.8393 97.7353 17.9559 97.452 17.288C97.2381 16.7851 97.426 15.8964 97.9479 14.9409C98.5697 13.8019 98.6546 13.2726 98.275 12.8984C97.3097 11.946 96.6122 14.3196 96.5502 18.7706C96.4416 26.596 96.3166 29.2401 96.0675 28.9942C95.7642 28.6955 95.3992 23.0018 95.3568 17.9245C95.3308 14.783 95.4822 13.9531 96.2751 12.8958C96.7974 12.1991 97.2176 11.2678 97.2094 10.8259C97.1961 10.1373 97.0666 10.1741 96.2997 11.082C95.4403 12.0995 95.4051 12.1044 95.4051 11.2162C95.4051 10.7079 95.7628 10.0924 96.2012 9.84886C96.8275 9.50026 96.8786 9.28807 96.4434 8.8543C96.0059 8.41868 95.8285 8.45997 95.5986 9.05076C95.4384 9.46212 95.1246 9.79858 94.9015 9.79858C94.2113 9.79858 94.4531 8.80627 95.2902 8.20249C96.2099 7.5399 95.7934 6.86383 94.7177 7.27118C94.0909 7.50849 94.0238 8.24148 94.2327 12.5974L94.475 17.6491L93.5403 13.4453C92.5275 8.89374 92.6671 7.14242 94.0708 6.7804C94.7802 6.59781 94.8586 6.41747 94.4444 5.92538C94.0425 5.44762 93.7715 5.42296 93.2866 5.81949C92.9385 6.10437 92.5271 6.21247 92.3724 6.05994C92.2173 5.90741 92.4272 5.65487 92.8382 5.49965C93.9777 5.06807 93.7296 4.3122 92.5622 4.65761C91.5695 4.95099 91.5636 4.93531 92.3692 4.12693C93.1771 3.31631 93.2342 3.33425 94.4786 4.78638C95.4923 5.96977 96.0274 6.24297 97.0593 6.10482L98.3617 5.93032L96.7696 5.1901C95.8942 4.78323 95.3769 4.44274 95.62 4.43287C95.8632 4.42345 95.6022 4.09777 95.0402 3.70928C94.3591 3.23914 93.5676 3.10053 92.6699 3.29522C90.9587 3.66577 90.654 4.16999 91.2301 5.67594C92.5695 9.17548 92.0513 10.9308 90.6786 7.54663C89.7348 5.22105 89.753 3.99773 90.7425 3.19787C91.4783 2.60303 91.4582 2.57163 90.4793 2.77933C89.7348 2.93724 89.487 2.83047 89.6472 2.42C89.7945 2.04048 89.493 1.83592 88.7873 1.83592C87.7741 1.83592 87.7458 1.90007 88.3685 2.77709C88.7362 3.29432 89.0368 4.00581 89.0368 4.35841C89.0368 4.71054 88.3872 4.11437 87.5934 3.03369C86.7636 1.90366 86.0679 1.31106 85.9575 1.63899C85.802 2.09925 85.6236 2.09745 85.0392 1.63046C84.49 1.19218 84.3969 1.18725 84.6551 1.61162ZM76.6322 1.99473C76.4812 2.14366 76.0884 2.15981 75.7604 2.03017C75.3978 1.88706 75.5054 1.78074 76.0355 1.75921C76.515 1.73992 76.7832 1.84579 76.6322 1.99473ZM74.9361 2.34867C74.9361 2.44557 74.6186 2.6452 74.2299 2.79234C73.8253 2.94531 73.6428 2.86995 73.802 2.61604C74.0689 2.18942 74.9361 1.98531 74.9361 2.34867ZM85.5415 3.12341C86.8562 3.78824 89.4916 6.26629 89.4916 6.83736C89.4916 7.0859 88.7243 6.5718 87.7859 5.69477C86.848 4.81823 85.5739 3.7676 84.9553 3.36072C83.6762 2.51914 84.0489 2.36841 85.5415 3.12341ZM83.23 5.03492C83.6638 5.3597 83.9024 5.74055 83.7601 5.8814C83.6173 6.02184 83.9448 6.37174 84.4882 6.65837C85.0315 6.94506 85.5903 7.06663 85.7304 6.92888C85.8704 6.79073 85.495 6.48432 84.8951 6.24791C84.2021 5.97426 84.0753 5.80785 84.5466 5.78943C84.9535 5.7742 85.541 6.06398 85.8526 6.43409C86.1642 6.80416 86.2691 7.10697 86.0857 7.10697C85.9019 7.10697 86.2354 7.52687 86.8257 8.04007L87.8995 8.97317L86.7746 8.2644C85.51 7.4672 84.2847 7.31692 84.7213 8.01271C84.8787 8.26395 86.0155 8.97362 87.2472 9.58953C88.6267 10.2786 89.9482 11.3961 90.6873 12.4969C92.2041 14.757 92.5011 14.7906 91.3528 12.5714C89.8616 9.68779 86.8471 6.27078 84.9558 5.31886C82.9216 4.2956 82.0517 4.1525 83.23 5.03492ZM76.8991 5.66431C76.5086 5.90876 76.7348 6.77186 77.7216 8.79912C83.2943 20.2492 83.3769 40.6355 77.8981 52.1913C76.3658 55.4229 74.5994 58.0278 73.7988 58.2363C73.5484 58.3019 72.8345 58.5463 72.2113 58.7795C71.5886 59.0131 70.3606 59.0962 69.4819 58.9641C67.9638 58.7355 67.9975 58.7777 70.1598 59.8258C72.6647 61.0393 74.1364 61.317 73.2076 60.4009C72.9074 60.1048 72.6616 59.656 72.6616 59.4035C72.6616 59.1515 72.964 59.3712 73.334 59.8919C73.9886 60.8134 77.2102 61.609 77.2102 60.8488C77.2102 60.6521 77.0564 60.4858 76.869 60.4804C76.6819 60.475 76.0163 60.0563 75.3909 59.5495C74.5588 58.8756 74.8225 58.9439 76.3754 59.8038C77.8133 60.6008 78.5965 60.8183 78.8087 60.4804C78.9802 60.2064 78.7421 59.6991 78.279 59.3532C77.2403 58.5773 77.8041 58.4942 79.0222 59.244C79.7735 59.7068 80.0554 59.6398 80.835 58.8141C81.7816 57.8122 82.0467 56.9015 81.3911 56.9015C81.1886 56.9015 80.6261 56.5996 80.1403 56.2312C79.352 55.6323 79.4309 55.6292 80.8756 56.2011L82.4946 56.8422L83.329 55.3133C84.3226 53.4938 84.0124 52.9474 81.3022 51.742C80.2976 51.295 79.5591 50.8466 79.6622 50.7451C79.7648 50.6436 80.9213 51.0969 82.231 51.7515C84.1401 52.7053 84.6916 52.823 85.0082 52.3427C85.8626 51.0452 85.1688 49.9755 82.6689 48.7364C81.2926 48.0544 80.4295 47.4928 80.7506 47.4887C81.0718 47.4847 82.3318 47.9794 83.5502 48.5886C85.4598 49.5428 85.8038 49.5999 86.0369 49.0006C86.6865 47.3306 86.2792 46.6504 83.9439 45.5025C82.6443 44.8635 81.8336 44.3409 82.1425 44.3409C82.4518 44.3409 83.5434 44.7625 84.568 45.2783C86.0803 46.0394 86.5054 46.1027 86.8266 45.6148C87.6933 44.2992 87.0095 43.3212 84.5908 42.4173C83.272 41.9242 82.2743 41.4402 82.3742 41.3415C82.4746 41.2428 83.6561 41.5743 85.0005 42.0786C86.3448 42.5823 87.4963 42.9946 87.5588 42.9946C87.6208 42.9951 87.6723 42.4805 87.6723 41.8516C87.6723 40.9477 87.2672 40.5188 85.739 39.8024C84.4845 39.2147 84.2304 38.9855 85.0146 39.1497C85.6793 39.2887 86.5492 39.5261 86.9475 39.6768C87.4985 39.8849 87.6723 39.6651 87.6723 38.7594C87.6723 37.7989 87.2974 37.3925 85.739 36.6622C83.9731 35.8349 84.3924 35.7968 87.1035 36.5393C88.0044 36.7855 88.1272 36.6541 88.1272 35.4451C88.1272 34.1733 87.9232 33.9979 85.3869 33.0859C83.8801 32.544 82.73 32.0183 82.8322 31.9178C82.9339 31.8177 84.167 32.134 85.5721 32.6207L88.1272 33.5067V31.9958C88.1272 30.2557 87.1007 29.3459 84.2605 28.5676C83.2601 28.2935 82.6721 27.9876 82.954 27.8871C83.2364 27.7866 84.5269 28.1015 85.8225 28.5874L88.1783 29.4697L88.0387 27.8211C87.9032 26.2174 87.8252 26.1519 85.1706 25.4233C83.6693 25.0115 82.8505 24.6594 83.3509 24.641C83.8513 24.6226 85.0474 24.8227 86.0091 25.086C86.9707 25.3493 87.8594 25.4646 87.9839 25.3417C88.5104 24.8223 87.5369 23.2808 86.4005 22.8363L85.1706 22.3554L86.4215 22.5196C87.3703 22.6438 87.6723 22.4953 87.6723 21.9036C87.6723 20.7234 86.5766 20.0608 83.9284 19.6382L81.5316 19.256L84.3746 19.4552C86.9812 19.6373 87.2175 19.5794 87.2175 18.7571C87.2175 17.5401 84.6784 16.0826 82.5549 16.0808C81.6083 16.0799 80.8492 15.8574 80.8492 15.5806C80.8492 15.1087 82.2816 15.2231 85.2842 15.9341C86.0844 16.1234 86.3074 15.9821 86.3074 15.2854C86.3074 14.0078 85.2208 13.29 82.2852 12.6284L79.7119 12.0483L81.9864 12.2147C83.2373 12.3067 84.604 12.5229 85.0237 12.6956C85.6268 12.9437 85.7354 12.8177 85.5429 12.0918C85.1601 10.6474 84.0922 10.0458 81.3478 9.72953L78.8023 9.43656L81.6461 9.50521C83.2099 9.54335 84.4895 9.45408 84.4891 9.30739C84.4877 8.82738 82.84 7.55647 82.178 7.52417C81.7761 7.50445 81.8541 7.36764 82.3833 7.16259C83.1835 6.85219 83.1885 6.78669 82.4645 6.07252C81.6621 5.28116 77.9446 5.00841 76.8991 5.66431ZM96.4936 7.36809C96.6455 7.75833 96.7696 8.1621 96.7696 8.2653C96.7696 8.36845 97.4931 8.45278 98.3776 8.45278C99.8443 8.45278 99.9433 8.37429 99.499 7.55557C98.8785 6.41208 96.0529 6.23578 96.4936 7.36809ZM79.607 7.40125C79.2991 7.52417 78.685 7.53181 78.2425 7.41787C77.7996 7.30394 78.0518 7.20343 78.8023 7.19445C79.5527 7.18551 79.9149 7.27837 79.607 7.40125ZM97.6861 9.46212C97.7016 10.6868 98.4224 11.1547 99.8571 10.8716C101.092 10.6285 101.228 10.4711 100.834 9.74521C100.312 8.7816 97.6747 8.54474 97.6861 9.46212ZM99.2184 11.7913C98.6637 13.2174 99.2362 14.0661 100.644 13.9046C102.401 13.7028 102.474 13.6041 101.857 12.2677C101.286 11.0318 99.6303 10.7326 99.2184 11.7913ZM86.749 12.9137C87.3074 13.9432 88.0783 14.482 88.4579 14.1079C88.7749 13.7956 87.2622 12.0416 86.676 12.0416C86.4562 12.0416 86.4885 12.4341 86.749 12.9137ZM100.445 14.9144C100.143 15.2733 100.042 16.0458 100.211 16.7088C100.518 17.9142 101.058 18.2036 101.546 17.4248C101.701 17.1781 102.377 16.9767 103.051 16.9771C104.24 16.9776 104.229 17.0004 102.683 17.7622C101.503 18.3431 101.052 18.8819 100.941 19.8414C100.806 21.0042 100.9 21.1083 101.851 20.857C102.434 20.7032 103.285 20.5745 103.742 20.5713C104.429 20.5659 104.522 20.3309 104.275 19.2192L103.975 17.8734L141.124 17.8801C164.248 17.8851 171.324 18.0152 172.197 18.4503C174.39 19.5449 174.375 20.6628 172.021 30.9891C170.825 36.2356 169.547 40.9916 169.181 41.5587C168.815 42.1252 167.862 42.9825 167.062 43.4634C165.664 44.3041 164.565 44.3377 138.154 44.3391C114.543 44.3404 103.53 44.2512 103.745 43.6998C103.882 43.3472 104.137 42.3087 104.311 41.3918C104.655 39.583 104.637 39.5821 102.114 41.3047C101.426 41.7745 100.863 42.5541 100.863 43.0372C100.863 43.8707 100.939 43.8802 102.342 43.2243C103.155 42.8448 103.438 42.7887 102.97 43.1009C101.178 44.2969 100.476 45.0523 100.155 46.1315C99.8438 47.1774 99.878 47.2062 100.679 46.5803C101.15 46.2119 100.975 46.5826 100.29 47.4034C99.6048 48.2238 99.0441 49.1848 99.0441 49.5383C99.0441 50.5955 102.139 48.3478 102.649 46.9204L103.09 45.6867H138.453H164.776C165.972 45.6867 167.141 45.3349 168.133 44.676C168.969 44.1197 170.017 43.0507 170.461 42.3002C170.906 41.5497 172.308 36.6047 173.578 31.3113C176.129 20.679 176.144 19.3255 173.724 17.449C172.553 16.5402 172.116 16.5276 141.656 16.5276H103.57L103.138 15.4061C102.659 14.1644 101.286 13.9141 100.445 14.9144ZM102.114 21.4891C101.331 21.9481 100.972 24.1538 101.682 24.1538C101.882 24.1538 101.959 24.8806 101.854 25.7688C101.675 27.2801 101.723 27.3519 102.598 26.8903C104.09 26.103 104.272 26.3175 102.972 27.3268C102.265 27.875 101.773 28.7031 101.773 29.3455C101.773 30.6796 101.855 30.6832 103.806 29.4249C105.189 28.5335 105.367 28.198 105.335 26.557C105.289 24.2148 104.852 23.5105 103.638 23.8232C103.112 23.9591 102.796 23.8869 102.937 23.6635C103.077 23.4397 103.603 23.2566 104.106 23.2566C104.794 23.2566 104.985 23.0067 104.876 22.2473C104.713 21.1168 103.376 20.7498 102.114 21.4891ZM84.3746 22.2199C83.9366 22.333 83.2204 22.333 82.7825 22.2199C82.3445 22.1073 82.7027 22.0149 83.5785 22.0149C84.454 22.0149 84.8125 22.1073 84.3746 22.2199ZM103.546 30.1126C102.245 30.9744 101.978 31.444 101.858 33.0792L101.716 35.0216L103.065 34.0737C105.11 32.6378 105.393 32.9397 103.469 34.5044C102.333 35.4281 101.773 36.2544 101.773 37.0089C101.773 37.6285 101.927 38.0524 102.114 37.951C102.302 37.8496 103.121 37.4858 103.934 37.1422L105.412 36.5182V32.8033C105.412 30.7599 105.34 29.0884 105.252 29.0884C105.164 29.0884 104.397 29.5491 103.546 30.1126ZM100.305 35.2567C99.2038 36.4917 97.8325 39.4175 96.9867 42.3356C96.5597 43.8088 95.5192 46.4118 94.6739 48.12C93.829 49.8286 93.21 51.2977 93.298 51.3849C93.3861 51.472 94.0471 50.7819 94.7669 49.8515C95.4863 48.921 96.948 47.3346 98.0145 46.3274C99.0811 45.3192 99.9478 44.1067 99.9405 43.6325C99.9291 42.9134 99.7029 43.0135 98.5761 44.2359C97.8325 45.0415 97.2244 45.5834 97.2244 45.44C97.2244 44.8891 98.3211 43.1584 99.5656 41.7457C100.279 40.9356 100.858 39.9262 100.851 39.5027C100.842 38.9491 100.459 39.1734 99.4825 40.3035C97.8904 42.1463 98.1363 40.8629 99.8009 38.6418C100.773 37.3454 101.749 34.4717 101.218 34.4717C101.101 34.4717 100.69 34.8247 100.305 35.2567ZM102.797 38.1121C101.794 38.7455 101.318 39.3964 101.318 40.1366V41.2276L103.134 40.2048C104.404 39.4897 104.951 38.8782 104.954 38.1726C104.958 36.9331 104.676 36.9251 102.797 38.1121ZM103.138 44.9589C103.138 45.0519 102.78 45.4055 102.342 45.7442C101.62 46.3018 101.604 46.286 102.17 45.5744C102.764 44.8271 103.138 44.5898 103.138 44.9589ZM97.3795 48.0418C96.6163 48.8433 95.3084 50.5011 94.4736 51.7254C93.6383 52.9492 92.2269 54.7648 91.3373 55.759L89.7192 57.5678L91.3113 56.4024C92.1868 55.7612 93.7729 54.7994 94.8363 54.2656C95.9001 53.7314 96.7696 53.0737 96.7696 52.8037C96.7696 52.513 96.3057 52.6123 95.6323 53.0472C95.0069 53.4515 94.4951 53.6025 94.4951 53.3828C94.4951 53.1631 95.3139 52.4492 96.3148 51.7964C97.3156 51.1432 98.134 50.3956 98.134 50.1359C98.134 49.8757 97.4689 50.1228 96.656 50.6853C95.3819 51.5664 95.2719 51.5866 95.86 50.8309C96.2349 50.3488 97.0041 49.5842 97.5684 49.1313C98.7253 48.2044 99.7302 46.5839 99.1491 46.5839C98.9392 46.5839 98.1427 47.2403 97.3795 48.0418ZM99.472 50.595C98.4037 51.5974 97.6395 52.526 97.7746 52.6595C98.2116 53.0899 101.269 51.0317 101.567 50.1062C102.061 48.5701 101.487 48.704 99.472 50.595ZM98.1646 53.3428C97.1008 54.103 96.3326 54.8254 96.4576 54.949C96.7742 55.2612 99.2106 53.9718 99.9378 53.1074C101.023 51.8175 100.134 51.9357 98.1646 53.3428ZM78.7991 55.1022C78.9583 55.3565 78.7758 55.4315 78.3712 55.2787C77.5833 54.9804 77.4392 54.6587 78.0934 54.6587C78.3288 54.6587 78.6463 54.8582 78.7991 55.1022ZM77.4346 56.4482C77.5938 56.702 77.4114 56.7775 77.0067 56.6243C76.2189 56.326 76.0743 56.0043 76.7285 56.0043C76.9643 56.0043 77.2818 56.2042 77.4346 56.4482ZM76.5711 57.8643C77.4333 58.8217 77.4323 58.824 76.4141 58.297C75.8512 58.0058 75.3909 57.5723 75.3909 57.3346C75.3909 56.6971 75.6085 56.795 76.5711 57.8643ZM82.6689 57.7093C82.6689 57.9065 82.9107 58.3068 83.2067 58.5989C83.9658 59.3474 83.293 59.842 82.4522 59.1537C81.6215 58.474 81.517 59.1712 82.3277 59.984C82.7861 60.4436 82.6538 60.4948 81.6452 60.2491C80.1421 59.8829 79.976 60.3618 81.418 60.9055C82.1917 61.197 82.6908 61.0654 83.4649 60.3641C84.6565 59.284 84.7975 58.0121 83.7688 57.6226C82.8272 57.2663 82.6689 57.2785 82.6689 57.7093Z" fill="black"></path><path fill-rule="evenodd" clip-rule="evenodd" d="M66.8136 10.1625C65.9528 11.1024 64.7653 13.0202 64.175 14.4243L63.1025 16.9768H30.3838H10.9415L9.15163 17.9691C8.16682 18.5146 6.96504 19.594 6.48062 20.3669C5.99574 21.1403 4.57199 26.1884 3.31611 31.5846C0.818433 42.3178 0.807973 43.1289 3.13462 45.2851L4.29544 46.3602L27.2975 46.4802L63.5765 46.6001L64.6549 48.8708C68.5412 57.0539 74.4898 54.5604 77.4363 43.5133C78.7068 38.7506 79.0571 28.1609 78.1379 22.3237C77.3465 17.3002 75.1412 11.7066 73.1942 9.78663C71.1551 7.77554 68.8769 7.90965 66.8136 10.1625ZM76.5436 20.2291C77.3464 22.9028 77.3323 37.8094 76.5235 41.762L75.9035 44.7901H33.7948H4.96317L3.91017 43.8148C3.33158 43.2783 2.85761 42.3259 2.85761 41.6987C2.85761 41.0712 3.82966 36.32 5.01823 31.14C7.00966 22.4596 7.29304 21.609 8.63806 20.2803C9.4409 19.4872 10.5667 18.7501 11.1398 18.6415C11.7134 18.5334 16.2455 18.4173 37.4383 18.3836L75.971 18.3226L76.5436 20.2291Z" fill="black"></path><path d="M25.7381 41.5918C25.4538 41.5918 25.253 41.5176 25.1359 41.3694C25.0188 41.2376 24.9269 41.1223 24.8599 41.0234L24.308 40.035C23.7225 40.1668 23.0953 40.2327 22.4262 40.2327C20.8372 40.2327 19.499 39.9856 18.4118 39.4914C17.3245 38.9972 16.5551 38.2559 16.1035 37.2675C15.6518 36.2626 15.5515 35.0189 15.8024 33.5363C15.9362 32.8444 16.0867 32.136 16.254 31.4112C16.4213 30.6699 16.5885 29.9368 16.7558 29.212C17.1238 27.7459 17.7511 26.5104 18.6376 25.5055C19.5408 24.5006 20.6364 23.7428 21.9244 23.2321C23.2291 22.705 24.676 22.4414 26.265 22.4414C27.8373 22.4414 29.1587 22.705 30.2292 23.2321C31.2998 23.7428 32.0692 24.5006 32.5375 25.5055C33.0059 26.5104 33.1063 27.7459 32.8386 29.212C32.7215 29.9368 32.5794 30.6699 32.4121 31.4112C32.2616 32.136 32.0943 32.8444 31.9103 33.5363C31.3917 35.4801 30.4551 37.0122 29.1002 38.1323L30.4551 40.8258C30.4885 40.9081 30.4969 40.9822 30.4802 41.0481C30.4634 41.1964 30.3881 41.32 30.2543 41.4188C30.1205 41.5341 29.9867 41.5918 29.8529 41.5918H25.7381ZM23.3294 36.032C24.0487 36.032 24.676 35.8261 25.2112 35.4142C25.7465 34.9859 26.1312 34.3105 26.3654 33.388C26.5493 32.6796 26.7083 31.996 26.8421 31.3371C26.9759 30.6617 27.1013 29.978 27.2184 29.2861C27.3355 28.6766 27.3271 28.1742 27.1933 27.7788C27.0762 27.3834 26.8588 27.0951 26.541 26.9139C26.2232 26.7327 25.8301 26.6421 25.3617 26.6421C24.6592 26.6421 24.032 26.8563 23.48 27.2846C22.9447 27.6964 22.56 28.3636 22.3258 29.2861C22.1586 29.978 21.9997 30.6617 21.8491 31.3371C21.7153 31.996 21.5815 32.6796 21.4477 33.388C21.3306 33.9975 21.3306 34.5 21.4477 34.8953C21.5815 35.2907 21.8073 35.579 22.1251 35.7602C22.4596 35.9414 22.8611 36.032 23.3294 36.032ZM31.9244 39.9856C31.7404 39.9856 31.6066 39.9115 31.5229 39.7632C31.4393 39.5985 31.4477 39.4338 31.548 39.269L40.6809 23.4545C40.7812 23.2733 40.9318 23.1004 41.1325 22.9356C41.3332 22.7709 41.5925 22.6885 41.9103 22.6885H46.6273C46.9453 22.6885 47.1711 22.7709 47.3047 22.9356C47.4384 23.1004 47.5137 23.2733 47.5305 23.4545L49.8639 39.269C49.8972 39.4832 49.8388 39.6562 49.6883 39.7879C49.5546 39.9197 49.3954 39.9856 49.2116 39.9856H45.448C45.1637 39.9856 44.9629 39.9197 44.8458 39.7879C44.7455 39.6562 44.6786 39.5243 44.6451 39.3926L44.2939 37.3416H38.2722L37.0177 39.4173C36.9508 39.549 36.8337 39.6809 36.6664 39.8126C36.5159 39.928 36.2985 39.9856 36.0141 39.9856H31.9244ZM40.3045 33.1656H44.043L43.3906 27.6058L40.3045 33.1656ZM52.0773 39.9856C51.893 39.9856 51.7425 39.928 51.6257 39.8126C51.5254 39.6809 51.4916 39.5243 51.5254 39.3431L54.9878 23.331C55.0211 23.1498 55.1133 23.0015 55.2638 22.8862C55.4308 22.7544 55.6064 22.6885 55.7907 22.6885H67.8591C68.0429 22.6885 68.1853 22.7544 68.2856 22.8862C68.4024 23.0015 68.4444 23.1498 68.4111 23.331L67.7085 26.4692C67.6748 26.6339 67.5831 26.7822 67.4325 26.9139C67.282 27.0457 67.1146 27.1116 66.9307 27.1116H59.479L58.8768 29.8297H65.8268C66.0106 29.8297 66.1529 29.8956 66.2533 30.0274C66.3537 30.1427 66.387 30.291 66.3537 30.4722L65.6762 33.5857C65.6425 33.7669 65.5421 33.9234 65.3751 34.0552C65.2246 34.1705 65.0572 34.2281 64.8733 34.2281H57.9234L56.8194 39.3431C56.7856 39.5243 56.6939 39.6809 56.5434 39.8126C56.3929 39.928 56.2254 39.9856 56.0416 39.9856H52.0773Z" fill="black"></path><path d="M121.081 41.5918C120.797 41.5918 120.596 41.5176 120.479 41.3694C120.361 41.2376 120.27 41.1223 120.203 41.0234L119.651 40.035C119.065 40.1668 118.438 40.2327 117.769 40.2327C116.18 40.2327 114.842 39.9856 113.755 39.4914C112.667 38.9972 111.898 38.2559 111.446 37.2675C110.995 36.2626 110.894 35.0189 111.145 33.5363C111.279 32.8444 111.429 32.136 111.597 31.4112C111.764 30.6699 111.931 29.9368 112.099 29.212C112.467 27.7459 113.094 26.5104 113.98 25.5055C114.884 24.5006 115.979 23.7428 117.267 23.2321C118.572 22.705 120.019 22.4414 121.608 22.4414C123.18 22.4414 124.501 22.705 125.572 23.2321C126.643 23.7428 127.412 24.5006 127.88 25.5055C128.349 26.5104 128.449 27.7459 128.181 29.212C128.064 29.9368 127.922 30.6699 127.755 31.4112C127.604 32.136 127.437 32.8444 127.253 33.5363C126.734 35.4801 125.798 37.0122 124.443 38.1323L125.798 40.8258C125.831 40.9081 125.84 40.9822 125.823 41.0481C125.806 41.1964 125.731 41.32 125.597 41.4188C125.463 41.5341 125.329 41.5918 125.196 41.5918H121.081ZM118.672 36.032C119.392 36.032 120.019 35.8261 120.554 35.4142C121.089 34.9859 121.474 34.3105 121.708 33.388C121.892 32.6796 122.051 31.996 122.185 31.3371C122.319 30.6617 122.444 29.978 122.561 29.2861C122.678 28.6766 122.67 28.1742 122.536 27.7788C122.419 27.3834 122.202 27.0951 121.884 26.9139C121.566 26.7327 121.173 26.6421 120.705 26.6421C120.002 26.6421 119.375 26.8563 118.823 27.2846C118.288 27.6964 117.903 28.3636 117.669 29.2861C117.501 29.978 117.342 30.6617 117.192 31.3371C117.058 31.996 116.924 32.6796 116.79 33.388C116.673 33.9975 116.673 34.5 116.79 34.8953C116.924 35.2907 117.15 35.579 117.468 35.7602C117.802 35.9414 118.204 36.032 118.672 36.032ZM127.267 39.9856C127.083 39.9856 126.949 39.9115 126.866 39.7632C126.782 39.5985 126.79 39.4338 126.891 39.269L136.024 23.4545C136.124 23.2733 136.275 23.1004 136.475 22.9356C136.676 22.7709 136.935 22.6885 137.253 22.6885H141.97C142.288 22.6885 142.514 22.7709 142.648 22.9356C142.781 23.1004 142.856 23.2733 142.873 23.4545L145.207 39.269C145.24 39.4832 145.182 39.6562 145.031 39.7879C144.897 39.9197 144.738 39.9856 144.554 39.9856H140.791C140.507 39.9856 140.306 39.9197 140.189 39.7879C140.088 39.6562 140.021 39.5243 139.988 39.3926L139.637 37.3416H133.615L132.361 39.4173C132.293 39.549 132.177 39.6809 132.009 39.8126C131.859 39.928 131.641 39.9856 131.357 39.9856H127.267ZM135.647 33.1656H139.386L138.733 27.6058L135.647 33.1656ZM146.743 39.9856C146.558 39.9856 146.417 39.928 146.316 39.8126C146.216 39.6809 146.182 39.5243 146.216 39.3431L146.868 36.3532C146.918 36.1226 147.002 35.9414 147.119 35.8096C147.253 35.6613 147.353 35.5543 147.42 35.4884L156.578 27.0375H149.779C149.594 27.0375 149.452 26.9798 149.352 26.8645C149.252 26.7327 149.218 26.5762 149.252 26.395L149.929 23.331C149.962 23.1498 150.055 23.0015 150.205 22.8862C150.356 22.7544 150.523 22.6885 150.707 22.6885H163.904C164.088 22.6885 164.231 22.7544 164.331 22.8862C164.431 23.0015 164.465 23.1498 164.431 23.331L163.779 26.2715C163.745 26.4527 163.679 26.6092 163.578 26.741C163.494 26.8727 163.394 26.9963 163.277 27.1116L154.445 35.5872H161.446C161.629 35.5872 161.772 35.6531 161.872 35.7849C161.972 35.9002 161.998 36.0485 161.947 36.2297L161.295 39.3431C161.261 39.5243 161.17 39.6809 161.019 39.8126C160.868 39.928 160.701 39.9856 160.517 39.9856H146.743Z" fill="black"></path></g><defs><clipPath id="clip0_1080_368"><rect width="177" height="62" fill="white"></rect></clipPath></defs></svg>