<svg width="929" height="218" viewBox="0 0 929 218" fill="none" xmlns="http://www.w3.org/2000/svg">
<path d="M56.834 153.309C56.834 163.221 52.6592 171.717 44.3096 178.797C36.9854 185.047 28.0742 189.026 17.5762 190.735C17.1855 190.784 16.8682 190.809 16.624 190.809C15.501 190.809 13.0107 187.391 9.15332 180.555C5.2959 173.67 3.36719 169.471 3.36719 167.957C3.36719 167.42 3.7334 167.078 4.46582 166.932C11.5459 165.32 16.2334 163.953 18.5283 162.83C23.6064 160.291 26.1455 156.531 26.1455 151.551C26.1455 148.377 24.4854 144.837 21.165 140.931C15.4033 134.29 12.2783 130.604 11.79 129.871C8.4209 124.793 6.73633 119.178 6.73633 113.025C6.73633 104.09 10.8623 96.668 19.1143 90.7598C25.8525 85.877 34.1289 82.7031 43.9434 81.2383C44.4805 81.1895 44.8955 81.165 45.1885 81.165C45.9209 81.165 46.5068 81.751 46.9463 82.9229C48.2158 86.4873 51.1699 92.9326 55.8086 102.259C55.9551 102.552 56.0283 102.796 56.0283 102.991C56.0283 103.821 55.5889 104.236 54.71 104.236C54.3193 104.236 53.6602 104.163 52.7324 104.017C51.8047 103.87 51.0967 103.797 50.6084 103.797C47.0928 103.797 44.0166 104.603 41.3799 106.214C38.2061 108.069 36.6191 110.657 36.6191 113.978C36.6191 116.956 38.377 120.618 41.8926 124.964C48.0938 132.776 51.3408 136.878 51.6338 137.269C55.1006 142.64 56.834 147.986 56.834 153.309ZM297.874 187.293C291.282 187.293 287.522 187.195 286.595 187C285.667 186.805 284.886 186.097 284.251 184.876C278.685 173.89 273.094 162.879 267.479 151.844C258.641 134.119 254.222 124.085 254.222 121.741C254.222 117.884 254.344 112.098 254.588 104.383C254.881 96.6191 255.027 90.8086 255.027 86.9512C255.027 85.1445 255.516 84.2412 256.492 84.2412C259.422 84.2412 263.865 84.3633 269.822 84.6074C275.779 84.8516 280.247 84.9736 283.226 84.9736C284.446 84.9736 285.057 85.4863 285.057 86.5117C285.057 90.4668 284.764 96.4238 284.178 104.383C283.641 112.293 283.372 118.226 283.372 122.181C283.372 125.208 288.328 136.023 298.24 154.627C300.926 149.793 303.978 143.86 307.396 136.829C311.985 127.356 314.28 121.546 314.28 119.397C314.28 115.833 314.231 110.486 314.134 103.357C314.036 96.1797 313.987 90.8086 313.987 87.2441C313.987 85.9258 314.207 85.1934 314.646 85.0469C314.646 85.0469 315.428 85.0469 316.99 85.0469C319.676 85.0469 323.729 84.9248 329.148 84.6807C334.617 84.3877 338.694 84.2412 341.38 84.2412C342.845 84.2412 343.577 84.8271 343.577 85.999C343.577 89.7588 343.504 95.4473 343.357 103.064C343.26 110.633 343.211 116.321 343.211 120.13C343.211 123.157 338.401 134.29 328.782 153.528C324.974 160.462 319.48 170.911 312.303 184.876C311.814 185.95 311.473 186.561 311.277 186.707C311.131 186.805 310.521 186.902 309.446 187C306.956 187.195 303.099 187.293 297.874 187.293ZM451.097 185.169C451.097 186.048 450.486 186.658 449.266 187C447.801 187.391 443.26 187.586 435.643 187.586C428.66 187.586 424.168 187.391 422.166 187C420.506 186.658 419.456 185.56 419.017 183.704C417.356 176.673 416.062 172.913 415.135 172.425C414.354 172.083 407.811 171.912 395.506 171.912C387.205 171.912 382.786 172.132 382.249 172.571C381.419 173.353 380.491 175.965 379.466 180.408C378.538 184.461 377.415 186.658 376.097 187C374.437 187.391 368.87 187.586 359.397 187.586C351.927 187.586 348.191 186.878 348.191 185.462C348.191 184.192 353.709 168.592 364.744 138.66C376.707 106.287 383.201 88.4893 384.227 85.2666C384.812 83.4111 385.496 82.4834 386.277 82.4834C387.596 82.4834 389.622 82.6055 392.356 82.8496C395.14 83.0938 397.215 83.2158 398.582 83.2158C399.9 83.2158 401.829 83.1426 404.368 82.9961C406.956 82.8008 408.885 82.7031 410.154 82.7031C411.082 82.7031 411.937 83.5088 412.718 85.1201C415.11 90.2471 422.093 107.825 433.665 137.854C445.286 168.079 451.097 183.851 451.097 185.169ZM399.168 118.445C398.143 120.594 396.409 125.257 393.968 132.435C391.331 140.052 390.013 144.52 390.013 145.838C390.013 146.717 391.478 147.205 394.407 147.303C395.921 147.4 398.411 147.449 401.878 147.449C405.101 147.449 406.883 147.059 407.225 146.277C407.322 146.033 407.371 145.691 407.371 145.252C407.371 143.641 406.248 139.197 404.002 131.922C401.805 124.891 400.193 120.398 399.168 118.445Z" fill="#B80604"/>
<path d="M563.45 188.245C559.251 188.245 553.782 188.147 547.044 187.952C538.255 187.757 532.786 187.635 530.638 187.586L508.738 187.293C506.541 187.342 503.392 187.244 499.29 187C497.874 186.756 497.166 185.999 497.166 184.729C497.166 179.407 497.239 171.448 497.386 160.853C497.581 150.208 497.679 142.225 497.679 136.902C497.679 131.238 497.508 122.767 497.166 111.487C496.824 100.159 496.653 91.6631 496.653 85.999C496.653 84.9248 497.386 84.3877 498.851 84.3877C500.315 84.3877 502.488 84.4609 505.369 84.6074C508.299 84.7539 510.472 84.8271 511.888 84.8271C513.499 84.8271 515.892 84.7539 519.065 84.6074C522.239 84.4121 524.632 84.3145 526.243 84.3145C526.976 84.3145 527.317 84.7783 527.269 85.7061L527.195 86.6582C526.609 95.8379 525.95 109.632 525.218 128.04L525.145 147.376C525.145 153.626 525.169 158.191 525.218 161.072C525.267 161.658 525.315 162.244 525.364 162.83C525.413 163.416 525.779 163.782 526.463 163.929C526.512 163.929 527.146 163.929 528.367 163.929C532.762 163.929 539.329 163.709 548.069 163.27C556.858 162.781 563.45 162.537 567.845 162.537C569.163 162.537 569.822 163.099 569.822 164.222C569.822 172.571 569.212 179.773 567.991 185.828C567.747 187.098 567.234 187.854 566.453 188.099C566.209 188.196 565.208 188.245 563.45 188.245ZM679.905 135.73C679.905 150.965 675.047 163.733 665.33 174.036C655.418 184.485 642.869 189.71 627.684 189.71C612.596 189.71 600.071 184.437 590.11 173.89C580.345 163.587 575.462 150.867 575.462 135.73C575.462 120.545 580.345 107.776 590.11 97.4248C600.071 86.8291 612.596 81.5312 627.684 81.5312C642.674 81.5312 655.174 86.8291 665.184 97.4248C674.998 107.874 679.905 120.643 679.905 135.73ZM652.146 135.584C652.146 128.26 649.925 122.034 645.481 116.907C640.843 111.536 634.91 108.851 627.684 108.851C620.799 108.851 614.964 111.634 610.179 117.2C605.54 122.571 603.221 128.748 603.221 135.73C603.221 143.201 605.394 149.427 609.739 154.407C614.329 159.632 620.311 162.244 627.684 162.244C634.568 162.244 640.428 159.485 645.262 153.968C649.852 148.694 652.146 142.566 652.146 135.584ZM787.205 184.656C787.303 185.975 786.619 186.634 785.154 186.634C784.227 186.634 781.541 186.097 777.098 185.022C772.703 183.948 769.993 183.216 768.968 182.825C758.763 186.829 748.973 188.831 739.598 188.831C724.51 188.831 712.132 183.802 702.464 173.743C692.894 163.831 688.108 151.307 688.108 136.17C688.108 120.691 692.747 107.85 702.024 97.6445C711.595 87.0977 724.021 81.8242 739.305 81.8242C746.727 81.8242 753.709 83.2402 760.252 86.0723C767.332 89.1973 772.898 93.5918 776.951 99.2559C777.781 100.428 778.196 101.258 778.196 101.746C778.196 103.309 775.999 106.824 771.604 112.293C767.259 117.713 764.451 120.423 763.182 120.423C762.889 120.423 761.766 119.422 759.812 117.42C757.42 115.027 754.979 113.172 752.488 111.854C748.777 109.852 744.676 108.851 740.184 108.851C732.859 108.851 727.049 111.585 722.752 117.054C718.748 122.083 716.746 128.357 716.746 135.877C716.746 143.836 718.821 150.135 722.972 154.773C727.269 159.559 733.348 161.951 741.209 161.951C746.189 161.951 751.756 160.706 757.908 158.216C757.762 156.604 757.322 152.503 756.59 145.911C755.955 140.833 755.638 136.731 755.638 133.606C755.638 132.679 755.955 132.117 756.59 131.922C756.834 131.824 757.225 131.775 757.762 131.775C759.178 131.775 761.302 131.922 764.134 132.215C767.015 132.459 769.188 132.581 770.652 132.581C772.215 132.581 774.559 132.483 777.684 132.288C780.809 132.044 783.152 131.922 784.715 131.922C785.936 131.922 786.546 132.728 786.546 134.339C786.546 136.683 786.399 140.223 786.106 144.959C785.862 149.695 785.74 153.235 785.74 155.579C785.74 161.878 786.204 171.302 787.132 183.851L787.205 184.656ZM827.195 132.874C827.195 138.636 827.342 147.303 827.635 158.875C827.928 170.447 828.074 179.114 828.074 184.876C828.074 185.853 827.854 186.463 827.415 186.707C827.317 186.756 826.683 186.854 825.511 187C822.337 187.391 818.089 187.586 812.767 187.586C805.638 187.586 801.097 187.391 799.144 187C797.728 186.707 797.02 185.95 797.02 184.729C797.02 185.511 797.239 181.214 797.679 171.839C798.558 152.063 798.997 139.075 798.997 132.874C798.997 127.649 798.826 119.812 798.484 109.363C798.143 98.9141 797.972 91.0771 797.972 85.8525C797.972 84.7783 798.533 84.2412 799.656 84.2412C801.17 84.2412 803.44 84.3145 806.468 84.4609C809.544 84.6074 811.839 84.6807 813.353 84.6807C814.866 84.6807 817.088 84.6074 820.018 84.4609C822.996 84.3145 825.242 84.2412 826.756 84.2412C828.172 84.2412 828.88 84.7783 828.88 85.8525C828.88 91.0771 828.587 98.9141 828.001 109.363C827.464 119.812 827.195 127.649 827.195 132.874ZM927.684 170.447C927.684 171.229 927.171 172.254 926.146 173.523C917.161 184.217 905.223 189.563 890.33 189.563C875.096 189.563 862.742 184.363 853.27 173.963C844.041 163.904 839.427 151.209 839.427 135.877C839.427 121.033 843.943 108.436 852.977 98.084C862.4 87.2441 874.388 81.8242 888.938 81.8242C904.759 81.8242 917.161 86.6826 926.146 96.3994C927.122 97.4736 927.61 98.4258 927.61 99.2559C927.61 100.184 925.901 103.626 922.483 109.583C919.114 115.54 916.99 118.885 916.111 119.617C915.721 120.008 915.232 120.203 914.646 120.203C914.402 120.203 913.182 119.227 910.984 117.273C908.348 114.93 905.76 113.099 903.221 111.78C899.363 109.827 895.359 108.851 891.209 108.851C884.031 108.851 878.294 111.536 873.997 116.907C870.042 121.888 868.064 128.04 868.064 135.364C868.064 142.786 870.042 149.012 873.997 154.041C878.294 159.51 884.031 162.244 891.209 162.244C895.457 162.244 899.485 161.316 903.294 159.461C905.784 158.24 908.323 156.531 910.911 154.334C913.06 152.479 914.256 151.551 914.5 151.551C914.988 151.551 915.477 151.819 915.965 152.356C916.746 153.235 918.87 156.287 922.337 161.512C925.901 166.932 927.684 169.91 927.684 170.447Z" fill="white"/>
<path d="M108.841 75.2987C101.924 73.2088 95.7964 70.6948 90.3361 67.9082C82.9039 80.6902 78.6266 95.5016 78.6266 111.343C78.6266 159.2 117.486 198 165.416 198C195.479 198 221.961 182.734 237.554 159.533C219.868 114.039 170.24 93.8357 108.841 75.2987ZM161.715 163.046C135.141 163.046 113.573 141.541 113.573 114.978C113.573 103.922 117.304 93.7751 123.584 85.6576C133.17 88.8683 142.392 92.2001 151.098 95.7742C144.333 99.4998 139.722 106.709 139.722 114.978C139.722 127.093 149.551 136.907 161.685 136.907C173.819 136.907 183.648 127.093 183.648 114.978C183.648 113.887 183.526 112.827 183.375 111.767C192.354 117.249 200.393 123.307 207.34 130.183C201 149.265 182.98 163.046 161.715 163.046Z" fill="black"/>
<path d="M108.841 75.2987C101.924 73.2088 95.7964 70.6948 90.3361 67.9082C82.9039 80.6902 78.6266 95.5016 78.6266 111.343C78.6266 159.2 117.486 198 165.416 198C195.479 198 221.961 182.734 237.554 159.533C219.868 114.039 170.24 93.8357 108.841 75.2987ZM161.715 163.046C135.141 163.046 113.573 141.541 113.573 114.978C113.573 103.922 117.304 93.7751 123.584 85.6576C133.17 88.8683 142.392 92.2001 151.098 95.7742C144.333 99.4998 139.722 106.709 139.722 114.978C139.722 127.093 149.551 136.907 161.685 136.907C173.819 136.907 183.648 127.093 183.648 114.978C183.648 113.887 183.526 112.827 183.375 111.767C192.354 117.249 200.393 123.307 207.34 130.183C201 149.265 182.98 163.046 161.715 163.046Z" fill="black"/>
<path d="M161.685 88.0203C146.548 88.0203 134.232 100.318 134.232 115.402C134.232 130.516 146.548 142.813 161.685 142.813C176.823 142.813 189.139 130.516 189.139 115.402C189.108 100.318 176.792 88.0203 161.685 88.0203Z" fill="#F7941D"/>
<path d="M242.984 187.126C242.984 187.126 261.094 85.385 144.394 57.5796C57.4829 36.8619 45.3487 0 45.3487 0C45.3487 0 36.6121 63.3649 106.596 84.4764C176.61 105.588 231.305 128.88 240.8 189.337L242.984 187.126Z" fill="#B80604"/>
</svg>
