<svg xmlns="http://www.w3.org/2000/svg" width="179" height="53" viewBox="0 0 179 53" fill="none"><path d="M12.503 39.9851L9.78732 49.3661H8.41602L6.23807 41.8155L3.97946 49.3661L2.6216 49.3795L0 39.9851H1.30408L3.34759 47.9394L5.6062 39.9851H6.9775L9.12856 47.9125L11.1855 39.9851H12.503Z" fill="black"></path><path d="M19.8917 45.3956C19.8917 45.6289 19.8783 45.8757 19.8514 46.1359H13.9629C14.0077 46.8627 14.2542 47.4324 14.7023 47.8452C15.1594 48.249 15.7106 48.4508 16.3559 48.4508C16.8847 48.4508 17.3239 48.3297 17.6735 48.0875C18.032 47.8362 18.2829 47.5042 18.4263 47.0915H19.7439C19.5467 47.8003 19.1523 48.3791 18.5608 48.8277C17.9692 49.2674 17.2343 49.4872 16.3559 49.4872C15.6568 49.4872 15.0294 49.3302 14.4738 49.0161C13.927 48.7021 13.4968 48.2579 13.1831 47.6837C12.8694 47.1005 12.7126 46.4275 12.7126 45.6648C12.7126 44.9021 12.8649 44.2337 13.1697 43.6594C13.4744 43.0852 13.9001 42.6455 14.4469 42.3404C15.0026 42.0264 15.6389 41.8694 16.3559 41.8694C17.055 41.8694 17.6735 42.0219 18.2112 42.327C18.749 42.6321 19.1613 43.0538 19.4481 43.5921C19.7439 44.1215 19.8917 44.7227 19.8917 45.3956ZM18.628 45.1399C18.628 44.6733 18.5249 44.2741 18.3188 43.9421C18.1126 43.6011 17.8303 43.3454 17.4718 43.1749C17.1222 42.9955 16.7324 42.9057 16.3022 42.9057C15.6837 42.9057 15.1549 43.1031 14.7158 43.4979C14.2855 43.8927 14.0391 44.4401 13.9763 45.1399H18.628Z" fill="black"></path><path d="M20.3773 45.6514C20.3773 44.8977 20.5297 44.2382 20.8344 43.6729C21.1391 43.0986 21.5559 42.6545 22.0847 42.3404C22.6225 42.0264 23.223 41.8694 23.8862 41.8694C24.4598 41.8694 24.9931 42.004 25.4861 42.2731C25.979 42.5334 26.3555 42.8788 26.6154 43.3095V39.4064H27.8522V49.3661H26.6154V47.9798C26.3734 48.4194 26.0149 48.7828 25.5398 49.07C25.0648 49.3481 24.5091 49.4872 23.8728 49.4872C23.2185 49.4872 22.6225 49.3257 22.0847 49.0027C21.5559 48.6796 21.1391 48.2265 20.8344 47.6433C20.5297 47.0601 20.3773 46.3961 20.3773 45.6514ZM26.6154 45.6648C26.6154 45.1085 26.5033 44.624 26.2793 44.2112C26.0552 43.7985 25.7505 43.4845 25.3651 43.2691C24.9886 43.0448 24.5719 42.9326 24.1148 42.9326C23.6577 42.9326 23.2409 43.0403 22.8645 43.2557C22.488 43.471 22.1878 43.785 21.9637 44.1978C21.7396 44.6105 21.6276 45.0951 21.6276 45.6514C21.6276 46.2166 21.7396 46.7101 21.9637 47.1319C22.1878 47.5446 22.488 47.8631 22.8645 48.0875C23.2409 48.3028 23.6577 48.4105 24.1148 48.4105C24.5719 48.4105 24.9886 48.3028 25.3651 48.0875C25.7505 47.8631 26.0552 47.5446 26.2793 47.1319C26.5033 46.7101 26.6154 46.2211 26.6154 45.6648Z" fill="black"></path><path d="M35.0769 39.9851C36.0986 39.9851 36.9815 40.178 37.7254 40.5639C38.4782 40.9407 39.0519 41.4836 39.4462 42.1924C39.8495 42.9012 40.0512 43.7357 40.0512 44.6958C40.0512 45.6559 39.8495 46.4903 39.4462 47.1992C39.0519 47.899 38.4782 48.4374 37.7254 48.8142C36.9815 49.1821 36.0986 49.3661 35.0769 49.3661H32.1595V39.9851H35.0769ZM35.0769 48.3566C36.2869 48.3566 37.21 48.0381 37.8464 47.401C38.4827 46.755 38.8009 45.8533 38.8009 44.6958C38.8009 43.5293 38.4782 42.6186 37.8329 41.9636C37.1966 41.3086 36.2779 40.9811 35.0769 40.9811H33.3829V48.3566H35.0769Z" fill="black"></path><path d="M47.7148 45.3956C47.7148 45.6289 47.7013 45.8757 47.6744 46.1359H41.7859C41.8307 46.8627 42.0772 47.4324 42.5253 47.8452C42.9824 48.249 43.5337 48.4508 44.179 48.4508C44.7078 48.4508 45.147 48.3297 45.4965 48.0875C45.855 47.8362 46.106 47.5042 46.2494 47.0915H47.5669C47.3697 47.8003 46.9754 48.3791 46.3838 48.8277C45.7923 49.2674 45.0573 49.4872 44.179 49.4872C43.4799 49.4872 42.8525 49.3302 42.2968 49.0161C41.7501 48.7021 41.3199 48.2579 41.0062 47.6837C40.6925 47.1005 40.5356 46.4275 40.5356 45.6648C40.5356 44.9021 40.688 44.2337 40.9927 43.6594C41.2974 43.0852 41.7232 42.6455 42.2699 42.3404C42.8256 42.0264 43.462 41.8694 44.179 41.8694C44.8781 41.8694 45.4965 42.0219 46.0343 42.327C46.572 42.6321 46.9843 43.0538 47.2711 43.5921C47.5669 44.1215 47.7148 44.7227 47.7148 45.3956ZM46.451 45.1399C46.451 44.6733 46.348 44.2741 46.1418 43.9421C45.9357 43.6011 45.6533 43.3454 45.2948 43.1749C44.9453 42.9955 44.5554 42.9057 44.1252 42.9057C43.5068 42.9057 42.978 43.1031 42.5388 43.4979C42.1086 43.8927 41.8621 44.4401 41.7994 45.1399H46.451Z" fill="black"></path><path d="M51.2656 49.4872C50.7009 49.4872 50.1946 49.393 49.7464 49.2046C49.2983 49.0072 48.9443 48.738 48.6843 48.397C48.4244 48.0471 48.281 47.6478 48.2541 47.1992H49.5179C49.5537 47.567 49.724 47.8676 50.0287 48.1009C50.3424 48.3342 50.7502 48.4508 51.2522 48.4508C51.7182 48.4508 52.0857 48.3477 52.3546 48.1413C52.6235 47.9349 52.7579 47.6747 52.7579 47.3607C52.7579 47.0376 52.6145 46.7999 52.3277 46.6473C52.0409 46.4858 51.5972 46.3288 50.9967 46.1763C50.45 46.0327 50.0019 45.8891 49.6523 45.7456C49.3117 45.593 49.016 45.3732 48.765 45.0861C48.523 44.79 48.402 44.4042 48.402 43.9286C48.402 43.5518 48.514 43.2063 48.7381 42.8923C48.9622 42.5782 49.2804 42.3315 49.6926 42.152C50.1049 41.9636 50.5755 41.8694 51.1043 41.8694C51.9199 41.8694 52.5786 42.0757 53.0806 42.4885C53.5825 42.9012 53.8514 43.4665 53.8872 44.1843H52.6638C52.6369 43.7985 52.4801 43.4889 52.1932 43.2557C51.9154 43.0224 51.539 42.9057 51.0639 42.9057C50.6248 42.9057 50.2752 42.9999 50.0153 43.1884C49.7554 43.3768 49.6254 43.6235 49.6254 43.9286C49.6254 44.1709 49.7016 44.3728 49.854 44.5343C50.0153 44.6868 50.2125 44.8124 50.4455 44.9111C50.6875 45.0008 51.0191 45.104 51.4404 45.2207C51.9692 45.3642 52.3994 45.5078 52.731 45.6514C53.0626 45.786 53.345 45.9923 53.578 46.2705C53.82 46.5486 53.9455 46.912 53.9544 47.3607C53.9544 47.7644 53.8424 48.1278 53.6183 48.4508C53.3943 48.7739 53.0761 49.0296 52.6638 49.218C52.2605 49.3975 51.7944 49.4872 51.2656 49.4872Z" fill="black"></path><path d="M55.6411 40.7927C55.4081 40.7927 55.2109 40.7119 55.0496 40.5504C54.8883 40.3889 54.8076 40.1915 54.8076 39.9582C54.8076 39.7249 54.8883 39.5275 55.0496 39.366C55.2109 39.2045 55.4081 39.1237 55.6411 39.1237C55.8652 39.1237 56.0534 39.2045 56.2058 39.366C56.3671 39.5275 56.4478 39.7249 56.4478 39.9582C56.4478 40.1915 56.3671 40.3889 56.2058 40.5504C56.0534 40.7119 55.8652 40.7927 55.6411 40.7927ZM56.2327 41.9905V49.3661H55.0093V41.9905H56.2327Z" fill="black"></path><path d="M60.684 41.8694C61.3203 41.8694 61.876 42.0085 62.351 42.2866C62.835 42.5648 63.1935 42.9147 63.4266 43.3364V41.9905H64.6634V49.5276C64.6634 50.2005 64.52 50.7972 64.2332 51.3176C63.9464 51.847 63.5341 52.2598 62.9963 52.5559C62.4675 52.852 61.8491 53 61.1411 53C60.1731 53 59.3664 52.7712 58.7211 52.3136C58.0758 51.856 57.6949 51.2324 57.5784 50.4428H58.7883C58.9228 50.8914 59.2006 51.2503 59.6219 51.5195C60.0431 51.7977 60.5495 51.9367 61.1411 51.9367C61.8133 51.9367 62.36 51.7259 62.7812 51.3042C63.2114 50.8824 63.4266 50.2902 63.4266 49.5276V47.9798C63.1846 48.4105 62.826 48.7694 62.351 49.0565C61.876 49.3436 61.3203 49.4872 60.684 49.4872C60.0297 49.4872 59.4336 49.3257 58.8959 49.0027C58.3671 48.6796 57.9503 48.2265 57.6456 47.6433C57.3408 47.0601 57.1885 46.3961 57.1885 45.6514C57.1885 44.8977 57.3408 44.2382 57.6456 43.6729C57.9503 43.0986 58.3671 42.6545 58.8959 42.3404C59.4336 42.0264 60.0297 41.8694 60.684 41.8694ZM63.4266 45.6648C63.4266 45.1085 63.3145 44.624 63.0904 44.2112C62.8664 43.7985 62.5616 43.4845 62.1762 43.2691C61.7998 43.0448 61.383 42.9326 60.9259 42.9326C60.4688 42.9326 60.0521 43.0403 59.6756 43.2557C59.2992 43.471 58.999 43.785 58.7749 44.1978C58.5508 44.6105 58.4388 45.0951 58.4388 45.6514C58.4388 46.2166 58.5508 46.7101 58.7749 47.1319C58.999 47.5446 59.2992 47.8631 59.6756 48.0875C60.0521 48.3028 60.4688 48.4105 60.9259 48.4105C61.383 48.4105 61.7998 48.3028 62.1762 48.0875C62.5616 47.8631 62.8664 47.5446 63.0904 47.1319C63.3145 46.7101 63.4266 46.2211 63.4266 45.6648Z" fill="black"></path><path d="M69.6482 41.8559C70.5445 41.8559 71.2705 42.1296 71.8262 42.6769C72.3819 43.2153 72.6597 43.9959 72.6597 45.0188V49.3661H71.4498V45.1938C71.4498 44.458 71.266 43.8972 70.8985 43.5114C70.5311 43.1166 70.0292 42.9192 69.3928 42.9192C68.7475 42.9192 68.2321 43.1211 67.8467 43.5248C67.4703 43.9286 67.2821 44.5163 67.2821 45.288V49.3661H66.0587V41.9905H67.2821V43.0403C67.5241 42.6635 67.8512 42.3718 68.2635 42.1655C68.6847 41.9591 69.1463 41.8559 69.6482 41.8559Z" fill="black"></path><path d="M84.0906 49.3661L82.8672 48.1278C82.4101 48.6034 81.9216 48.9578 81.4018 49.1911C80.8819 49.4154 80.2949 49.5276 79.6406 49.5276C78.9953 49.5276 78.4217 49.4109 77.9197 49.1776C77.4268 48.9443 77.0414 48.6124 76.7635 48.1817C76.4947 47.751 76.3602 47.2485 76.3602 46.6743C76.3602 46.0192 76.544 45.445 76.9114 44.9515C77.2879 44.449 77.8391 44.0542 78.5651 43.7671C78.2782 43.4261 78.0721 43.1121 77.9466 42.825C77.8211 42.5378 77.7584 42.2238 77.7584 41.8828C77.7584 41.488 77.857 41.1336 78.0542 40.8196C78.2603 40.4966 78.5516 40.2453 78.928 40.0659C79.3045 39.8864 79.7392 39.7967 80.2321 39.7967C80.7161 39.7967 81.1374 39.8909 81.4959 40.0793C81.8544 40.2678 82.1233 40.5324 82.3025 40.8734C82.4818 41.2054 82.5624 41.5778 82.5445 41.9905H81.3211C81.3301 41.6226 81.227 41.3355 81.0119 41.1291C80.7968 40.9138 80.5189 40.8061 80.1783 40.8061C79.8198 40.8061 79.5285 40.9093 79.3045 41.1157C79.0894 41.3131 78.9818 41.5688 78.9818 41.8828C78.9818 42.152 79.0535 42.4122 79.1969 42.6635C79.3493 42.9147 79.6003 43.2243 79.9498 43.5921L82.7462 46.4051L82.9882 46.0282L83.9024 44.4939H85.2199L84.1175 46.4051C83.9651 46.6743 83.7859 46.9569 83.5797 47.253L85.6904 49.3661H84.0906ZM79.6406 48.4778C80.1246 48.4778 80.5593 48.3836 80.9447 48.1951C81.339 48.0067 81.711 47.7151 82.0605 47.3203L79.3045 44.5477C78.1572 44.9874 77.5836 45.6828 77.5836 46.6339C77.5836 47.1633 77.7718 47.6029 78.1483 47.9529C78.5337 48.3028 79.0311 48.4778 79.6406 48.4778Z" fill="black"></path><path d="M91.9938 39.9851C93.0156 39.9851 93.8984 40.178 94.6423 40.5639C95.3952 40.9407 95.9688 41.4836 96.3632 42.1924C96.7665 42.9012 96.9682 43.7357 96.9682 44.6958C96.9682 45.6559 96.7665 46.4903 96.3632 47.1992C95.9688 47.899 95.3952 48.4374 94.6423 48.8142C93.8984 49.1821 93.0156 49.3661 91.9938 49.3661H89.0765V39.9851H91.9938ZM91.9938 48.3566C93.2038 48.3566 94.127 48.0381 94.7633 47.401C95.3997 46.755 95.7179 45.8533 95.7179 44.6958C95.7179 43.5293 95.3952 42.6186 94.7499 41.9636C94.1135 41.3086 93.1949 40.9811 91.9938 40.9811H90.2999V48.3566H91.9938Z" fill="black"></path><path d="M104.632 45.3956C104.632 45.6289 104.618 45.8757 104.591 46.1359H98.7029C98.7477 46.8627 98.9942 47.4324 99.4423 47.8452C99.8994 48.249 100.451 48.4508 101.096 48.4508C101.625 48.4508 102.064 48.3297 102.413 48.0875C102.772 47.8362 103.023 47.5042 103.166 47.0915H104.484C104.287 47.8003 103.892 48.3791 103.301 48.8277C102.709 49.2674 101.974 49.4872 101.096 49.4872C100.397 49.4872 99.7695 49.3302 99.2138 49.0161C98.667 48.7021 98.2368 48.2579 97.9231 47.6837C97.6094 47.1005 97.4526 46.4275 97.4526 45.6648C97.4526 44.9021 97.605 44.2337 97.9097 43.6594C98.2144 43.0852 98.6402 42.6455 99.1869 42.3404C99.7426 42.0264 100.379 41.8694 101.096 41.8694C101.795 41.8694 102.413 42.0219 102.951 42.327C103.489 42.6321 103.901 43.0538 104.188 43.5921C104.484 44.1215 104.632 44.7227 104.632 45.3956ZM103.368 45.1399C103.368 44.6733 103.265 44.2741 103.059 43.9421C102.853 43.6011 102.57 43.3454 102.212 43.1749C101.862 42.9955 101.472 42.9057 101.042 42.9057C100.424 42.9057 99.8949 43.1031 99.4558 43.4979C99.0256 43.8927 98.7791 44.4401 98.7163 45.1399H103.368Z" fill="black"></path><path d="M108.317 48.2355L110.603 41.9905H111.907L109.016 49.3661H107.591L104.701 41.9905H106.018L108.317 48.2355Z" fill="black"></path><path d="M119.16 45.3956C119.16 45.6289 119.147 45.8757 119.12 46.1359H113.231C113.276 46.8627 113.523 47.4324 113.971 47.8452C114.428 48.249 114.979 48.4508 115.625 48.4508C116.153 48.4508 116.592 48.3297 116.942 48.0875C117.301 47.8362 117.552 47.5042 117.695 47.0915H119.012C118.815 47.8003 118.421 48.3791 117.829 48.8277C117.238 49.2674 116.503 49.4872 115.625 49.4872C114.925 49.4872 114.298 49.3302 113.742 49.0161C113.196 48.7021 112.765 48.2579 112.452 47.6837C112.138 47.1005 111.981 46.4275 111.981 45.6648C111.981 44.9021 112.134 44.2337 112.438 43.6594C112.743 43.0852 113.169 42.6455 113.715 42.3404C114.271 42.0264 114.908 41.8694 115.625 41.8694C116.324 41.8694 116.942 42.0219 117.48 42.327C118.018 42.6321 118.43 43.0538 118.717 43.5921C119.012 44.1215 119.16 44.7227 119.16 45.3956ZM117.897 45.1399C117.897 44.6733 117.794 44.2741 117.587 43.9421C117.381 43.6011 117.099 43.3454 116.74 43.1749C116.391 42.9955 116.001 42.9057 115.571 42.9057C114.952 42.9057 114.424 43.1031 113.984 43.4979C113.554 43.8927 113.308 44.4401 113.245 45.1399H117.897Z" fill="black"></path><path d="M121.326 39.4064V49.3661H120.103V39.4064H121.326Z" fill="black"></path><path d="M125.952 49.4872C125.262 49.4872 124.635 49.3302 124.07 49.0161C123.515 48.7021 123.075 48.2579 122.753 47.6837C122.439 47.1005 122.282 46.4275 122.282 45.6648C122.282 44.9111 122.444 44.2471 122.766 43.6729C123.098 43.0897 123.546 42.6455 124.111 42.3404C124.675 42.0264 125.307 41.8694 126.006 41.8694C126.705 41.8694 127.337 42.0264 127.902 42.3404C128.467 42.6455 128.91 43.0852 129.233 43.6594C129.564 44.2337 129.73 44.9021 129.73 45.6648C129.73 46.4275 129.56 47.1005 129.219 47.6837C128.888 48.2579 128.435 48.7021 127.862 49.0161C127.288 49.3302 126.652 49.4872 125.952 49.4872ZM125.952 48.4105C126.392 48.4105 126.804 48.3073 127.189 48.1009C127.575 47.8945 127.884 47.585 128.117 47.1722C128.359 46.7595 128.48 46.257 128.48 45.6648C128.48 45.0726 128.363 44.5702 128.13 44.1574C127.897 43.7447 127.593 43.4396 127.216 43.2422C126.84 43.0358 126.432 42.9326 125.993 42.9326C125.545 42.9326 125.132 43.0358 124.756 43.2422C124.388 43.4396 124.093 43.7447 123.869 44.1574C123.645 44.5702 123.533 45.0726 123.533 45.6648C123.533 46.266 123.64 46.773 123.855 47.1857C124.079 47.5984 124.375 47.908 124.742 48.1144C125.11 48.3118 125.513 48.4105 125.952 48.4105Z" fill="black"></path><path d="M131.89 43.3499C132.132 42.9282 132.491 42.5782 132.966 42.3001C133.45 42.0129 134.01 41.8694 134.646 41.8694C135.3 41.8694 135.892 42.0264 136.421 42.3404C136.958 42.6545 137.38 43.0986 137.684 43.6729C137.989 44.2382 138.142 44.8977 138.142 45.6514C138.142 46.3961 137.989 47.0601 137.684 47.6433C137.38 48.2265 136.958 48.6796 136.421 49.0027C135.892 49.3257 135.3 49.4872 134.646 49.4872C134.019 49.4872 133.463 49.3481 132.979 49.07C132.504 48.7828 132.141 48.4284 131.89 48.0067V52.8654H130.667V41.9905H131.89V43.3499ZM136.891 45.6514C136.891 45.0951 136.779 44.6105 136.555 44.1978C136.331 43.785 136.026 43.471 135.641 43.2557C135.265 43.0403 134.848 42.9326 134.391 42.9326C133.943 42.9326 133.526 43.0448 133.14 43.2691C132.764 43.4845 132.459 43.803 132.226 44.2247C132.002 44.6375 131.89 45.1175 131.89 45.6648C131.89 46.2211 132.002 46.7101 132.226 47.1319C132.459 47.5446 132.764 47.8631 133.14 48.0875C133.526 48.3028 133.943 48.4105 134.391 48.4105C134.848 48.4105 135.265 48.3028 135.641 48.0875C136.026 47.8631 136.331 47.5446 136.555 47.1319C136.779 46.7101 136.891 46.2166 136.891 45.6514Z" fill="black"></path><path d="M147.939 41.8559C148.513 41.8559 149.024 41.977 149.472 42.2193C149.92 42.4526 150.274 42.807 150.534 43.2826C150.794 43.7581 150.924 44.3369 150.924 45.0188V49.3661H149.714V45.1938C149.714 44.458 149.53 43.8972 149.163 43.5114C148.804 43.1166 148.316 42.9192 147.697 42.9192C147.061 42.9192 146.555 43.1256 146.178 43.5383C145.802 43.9421 145.614 44.5298 145.614 45.3014V49.3661H144.404V45.1938C144.404 44.458 144.22 43.8972 143.852 43.5114C143.494 43.1166 143.005 42.9192 142.387 42.9192C141.751 42.9192 141.244 43.1256 140.868 43.5383C140.491 43.9421 140.303 44.5298 140.303 45.3014V49.3661H139.08V41.9905H140.303V43.0538C140.545 42.6679 140.868 42.3718 141.271 42.1655C141.683 41.9591 142.136 41.8559 142.629 41.8559C143.247 41.8559 143.794 41.995 144.269 42.2731C144.744 42.5513 145.098 42.9596 145.331 43.4979C145.537 42.9775 145.878 42.5737 146.353 42.2866C146.828 41.9995 147.357 41.8559 147.939 41.8559Z" fill="black"></path><path d="M158.981 45.3956C158.981 45.6289 158.967 45.8757 158.94 46.1359H153.052C153.097 46.8627 153.343 47.4324 153.791 47.8452C154.248 48.249 154.8 48.4508 155.445 48.4508C155.974 48.4508 156.413 48.3297 156.762 48.0875C157.121 47.8362 157.372 47.5042 157.515 47.0915H158.833C158.636 47.8003 158.241 48.3791 157.65 48.8277C157.058 49.2674 156.323 49.4872 155.445 49.4872C154.746 49.4872 154.118 49.3302 153.563 49.0161C153.016 48.7021 152.586 48.2579 152.272 47.6837C151.958 47.1005 151.802 46.4275 151.802 45.6648C151.802 44.9021 151.954 44.2337 152.259 43.6594C152.563 43.0852 152.989 42.6455 153.536 42.3404C154.091 42.0264 154.728 41.8694 155.445 41.8694C156.144 41.8694 156.762 42.0219 157.3 42.327C157.838 42.6321 158.25 43.0538 158.537 43.5921C158.833 44.1215 158.981 44.7227 158.981 45.3956ZM157.717 45.1399C157.717 44.6733 157.614 44.2741 157.408 43.9421C157.202 43.6011 156.919 43.3454 156.561 43.1749C156.211 42.9955 155.821 42.9057 155.391 42.9057C154.773 42.9057 154.244 43.1031 153.805 43.4979C153.374 43.8927 153.128 44.4401 153.065 45.1399H157.717Z" fill="black"></path><path d="M163.513 41.8559C164.409 41.8559 165.135 42.1296 165.691 42.6769C166.247 43.2153 166.524 43.9959 166.524 45.0188V49.3661H165.314V45.1938C165.314 44.458 165.131 43.8972 164.763 43.5114C164.396 43.1166 163.894 42.9192 163.257 42.9192C162.612 42.9192 162.097 43.1211 161.711 43.5248C161.335 43.9286 161.147 44.5163 161.147 45.288V49.3661H159.923V41.9905H161.147V43.0403C161.389 42.6635 161.716 42.3718 162.128 42.1655C162.549 41.9591 163.011 41.8559 163.513 41.8559Z" fill="black"></path><path d="M169.343 42.9999V47.3472C169.343 47.7061 169.419 47.9618 169.572 48.1144C169.724 48.2579 169.988 48.3297 170.365 48.3297H171.265V49.3661H170.163C169.482 49.3661 168.971 49.209 168.63 48.895C168.29 48.581 168.12 48.065 168.12 47.3472V42.9999H167.165V41.9905H168.12V40.1332H169.343V41.9905H171.265V42.9999H169.343Z" fill="black"></path><path d="M20.1035 32.5423H1.09684V0H19.5187C25.9517 0 29.022 4.19586 29.022 8.29413C29.022 12.3436 26.5365 15.0758 23.4662 15.7589C26.9264 16.2955 29.6555 19.6132 29.6555 23.7115C29.6555 28.444 26.4878 32.5423 20.1035 32.5423ZM17.618 12.49C19.3237 12.49 20.4934 11.3678 20.4934 9.7578C20.4934 8.19655 19.3237 7.07441 17.618 7.07441H9.47925V12.49H17.618ZM17.9104 25.4679C19.9085 25.4679 21.1269 24.2969 21.1269 22.5405C21.1269 20.9305 19.9573 19.6132 17.9104 19.6132H9.47925V25.4679H17.9104Z" fill="black"></path><path d="M61.9516 32.5423H52.3508L46.8925 21.6135H42.6038V32.5423H34.2214V0H50.4989C57.7116 0 61.8054 4.78132 61.8054 10.8312C61.8054 16.4907 58.3452 19.5156 55.3236 20.589L61.9516 32.5423ZM49.2317 14.2952C51.4248 14.2952 53.2767 13.0755 53.2767 10.7824C53.2767 8.58687 51.4248 7.31835 49.2317 7.31835H42.6038V14.2952H49.2317Z" fill="black"></path><path d="M98.0219 32.5423H88.5186L86.9103 27.8585H74.093L72.4848 32.5423H62.9815L75.214 0H85.7407L98.0219 32.5423ZM84.6198 20.5402L80.4773 8.29413L76.3349 20.5402H84.6198Z" fill="black"></path><path d="M130.639 32.5423H122.549L108.805 13.7097V32.5423H100.423V0H109.049L122.207 17.9056V0H130.639V32.5423Z" fill="black"></path><path d="M150.193 32.5423H136.498V0H150.144C160.378 0 167.737 6.14742 167.737 16.2467C167.737 26.3461 160.378 32.5423 150.193 32.5423ZM150.144 25.2239C155.846 25.2239 159.16 21.0769 159.16 16.2467C159.16 11.2215 156.138 7.31835 150.193 7.31835H144.881V25.2239H150.144Z" fill="black"></path><path d="M174.419 33.1277C171.933 33.1277 169.838 31.0298 169.838 28.5416C169.838 26.0533 171.933 23.9554 174.419 23.9554C176.904 23.9554 179 26.0533 179 28.5416C179 31.0298 176.904 33.1277 174.419 33.1277Z" fill="black"></path></svg>