<svg xmlns="http://www.w3.org/2000/svg" width="555" height="555" viewBox="0 0 555 555" fill="none"><path d="M135.855 329.482C135.855 300.954 142.226 275.473 154.966 253.039C167.984 230.328 185.571 212.74 207.728 200.277C230.162 187.537 255.228 181.167 282.924 181.167C315.329 181.167 343.718 189.475 368.091 206.093C392.464 222.711 409.498 245.7 419.192 275.058H352.304C345.657 261.21 336.24 250.823 324.054 243.899C312.144 236.975 298.296 233.513 282.509 233.513C265.614 233.513 250.519 237.529 237.225 245.561C224.208 253.316 213.96 264.395 206.482 278.797C199.281 293.199 195.68 310.094 195.68 329.482C195.68 348.592 199.281 365.487 206.482 380.166C213.96 394.569 224.208 405.786 237.225 413.818C250.519 421.573 265.614 425.451 282.509 425.451C298.296 425.451 312.144 421.988 324.054 415.064C336.24 407.863 345.657 397.338 352.304 383.49H419.192C409.498 413.125 392.464 436.252 368.091 452.87C343.995 469.211 315.606 477.382 282.924 477.382C255.228 477.382 230.162 471.15 207.728 458.687C185.571 445.946 167.984 428.358 154.966 405.924C142.226 383.49 135.855 358.009 135.855 329.482Z" fill="#5CB64D"></path><line x1="208.612" y1="501.716" x2="359.684" y2="501.716" stroke="#5CB64D" stroke-width="3"></line><line x1="236.88" y1="171.248" x2="331.301" y2="171.248" stroke="#5CB64D" stroke-width="3"></line><path d="M231.648 79.0524L248.406 50.4939C248.585 50.1879 248.914 50 249.268 50H279.382H339.755C340.308 50 340.755 50.4477 340.755 51V78.0524C340.755 78.6047 340.308 79.0524 339.755 79.0524H306.659L340.755 126.262L327.117 118.999L293.021 100.842V144.42H275.973V86.3155H258.924V144.42L235.057 118.999L218.481 97.8139C218.203 97.4577 218.198 96.9588 218.469 96.5971L231.648 79.0524Z" fill="#5CB64D"></path></svg>