<svg xmlns="http://www.w3.org/2000/svg" width="501" height="73" viewBox="0 0 501 73" fill="none"><path d="M0.153442 44.5573C0.153442 40.0485 1.16027 36.0212 3.17393 32.4754C5.23136 28.8858 8.01108 26.1061 11.5131 24.1362C15.0589 22.1225 19.0205 21.1157 23.3981 21.1157C28.5197 21.1157 33.0067 22.429 36.8589 25.0555C40.7111 27.682 43.4033 31.3153 44.9354 35.9555H34.3637C33.3131 33.7667 31.8248 32.1251 29.8987 31.0308C28.0163 29.9364 25.8276 29.3892 23.3324 29.3892C20.6621 29.3892 18.2764 30.024 16.1752 31.2934C14.1177 32.5191 12.498 34.2702 11.3161 36.5465C10.178 38.8228 9.60888 41.493 9.60888 44.5573C9.60888 47.5778 10.178 50.2481 11.3161 52.5682C12.498 54.8445 14.1177 56.6173 16.1752 57.8868C18.2764 59.1125 20.6621 59.7254 23.3324 59.7254C25.8276 59.7254 28.0163 59.1782 29.8987 58.0838C31.8248 56.9457 33.3131 55.2822 34.3637 53.0935H44.9354C43.4033 57.7774 40.7111 61.4327 36.8589 64.0592C33.0505 66.6419 28.5635 67.9333 23.3981 67.9333C19.0205 67.9333 15.0589 66.9483 11.5131 64.9784C8.01108 62.9648 5.23136 60.185 3.17393 56.6392C1.16027 53.0935 0.153442 49.0662 0.153442 44.5573Z" fill="#5CB64D"></path><path d="M61.98 60.2507H77.0825V67.5393H52.7873V21.7067H61.98V60.2507Z" fill="#5CB64D"></path><path d="M92.1182 29.1265V40.6175H107.549V47.9061H92.1182V60.0537H109.519V67.5393H82.9254V21.641H109.519V29.1265H92.1182Z" fill="#5CB64D"></path><path d="M159.043 21.7067L142.234 67.5393H131.071L114.261 21.7067H124.111L136.718 58.1495L149.26 21.7067H159.043Z" fill="#5CB64D"></path><path d="M173.748 29.1265V40.6175H189.178V47.9061H173.748V60.0537H191.148V67.5393H164.555V21.641H191.148V29.1265H173.748Z" fill="#5CB64D"></path><path d="M223.141 67.5393L213.029 49.679H208.695V67.5393H199.502V21.7067H216.706C220.252 21.7067 223.272 22.3414 225.768 23.6109C228.263 24.8366 230.123 26.5219 231.349 28.6669C232.618 30.7681 233.253 33.132 233.253 35.7585C233.253 38.779 232.378 41.5149 230.627 43.9663C228.876 46.374 226.271 48.0374 222.813 48.9567L233.778 67.5393H223.141ZM208.695 42.7844H216.378C218.873 42.7844 220.733 42.1935 221.959 41.0115C223.185 39.7858 223.798 38.1005 223.798 35.9555C223.798 33.8543 223.185 32.2346 221.959 31.0964C220.733 29.9145 218.873 29.3236 216.378 29.3236H208.695V42.7844Z" fill="#5CB64D"></path><path d="M254.981 44.5573C254.981 40.0485 255.988 36.0212 258.002 32.4754C260.059 28.8858 262.839 26.1061 266.341 24.1362C269.887 22.1225 273.848 21.1157 278.226 21.1157C283.348 21.1157 287.835 22.429 291.687 25.0555C295.539 27.682 298.231 31.3153 299.763 35.9555H289.192C288.141 33.7667 286.653 32.1251 284.727 31.0308C282.844 29.9364 280.655 29.3892 278.16 29.3892C275.49 29.3892 273.104 30.024 271.003 31.2934C268.946 32.5191 267.326 34.2702 266.144 36.5465C265.006 38.8228 264.437 41.493 264.437 44.5573C264.437 47.5778 265.006 50.2481 266.144 52.5682C267.326 54.8445 268.946 56.6173 271.003 57.8868C273.104 59.1125 275.49 59.7254 278.16 59.7254C280.655 59.7254 282.844 59.1782 284.727 58.0838C286.653 56.9457 288.141 55.2822 289.192 53.0935H299.763C298.231 57.7774 295.539 61.4327 291.687 64.0592C287.878 66.6419 283.391 67.9333 278.226 67.9333C273.848 67.9333 269.887 66.9483 266.341 64.9784C262.839 62.9648 260.059 60.185 258.002 56.6392C255.988 53.0935 254.981 49.0662 254.981 44.5573Z" fill="#5CB64D"></path><path d="M316.808 60.2507H331.91V67.5393H307.615V21.7067H316.808V60.2507Z" fill="#5CB64D"></path><path d="M346.946 29.1265V40.6175H362.377V47.9061H346.946V60.0537H364.347V67.5393H337.753V21.641H364.347V29.1265H346.946Z" fill="#5CB64D"></path><path d="M400.804 58.8062H382.55L379.53 67.5393H369.877L386.359 21.641H397.062L413.543 67.5393H403.825L400.804 58.8062ZM398.309 51.4519L391.677 32.2784L385.045 51.4519H398.309Z" fill="#5CB64D"></path><path d="M458.904 67.5393H449.711L428.896 36.0868V67.5393H419.703V21.641H428.896L449.711 53.1591V21.641H458.904V67.5393Z" fill="#5CB64D"></path><line x1="266.481" y1="70.5161" x2="290.358" y2="70.5161" stroke="#5CB64D" stroke-width="3"></line><line x1="270.948" y1="18.2856" x2="285.872" y2="18.2856" stroke="#5CB64D" stroke-width="3"></line><path d="M270.122 4.97608L272.526 0.878174C272.706 0.572217 273.034 0.384277 273.389 0.384277H277.666H286.366C286.919 0.384277 287.366 0.831993 287.366 1.38428V3.97608C287.366 4.52836 286.919 4.97608 286.366 4.97608H281.977L287.366 12.4378L285.211 11.2898L279.822 8.41993V15.3076H277.127V6.12403H274.433V15.3076L270.66 11.2898L268.438 8.44974C268.16 8.09353 268.155 7.5946 268.426 7.23297L270.122 4.97608Z" fill="#5CB64D"></path><path d="M490.489 35.4107C490.315 33.6509 489.566 32.2838 488.242 31.3094C486.919 30.335 485.123 29.8478 482.854 29.8478C481.312 29.8478 480.011 30.066 478.949 30.5023C477.887 30.924 477.073 31.513 476.506 32.2693C475.953 33.0256 475.677 33.8836 475.677 34.8435C475.648 35.6434 475.815 36.3415 476.178 36.9378C476.557 37.534 477.073 38.0503 477.727 38.4866C478.382 38.9084 479.138 39.2793 479.996 39.5992C480.854 39.9046 481.77 40.1664 482.745 40.3846L486.759 41.3444C488.708 41.7807 490.497 42.3625 492.125 43.0897C493.754 43.8168 495.165 44.7113 496.358 45.7729C497.55 46.8346 498.474 48.0854 499.128 49.5252C499.797 50.965 500.139 52.6157 500.153 54.4772C500.139 57.2114 499.441 59.582 498.059 61.589C496.692 63.5815 494.714 65.1303 492.125 66.2356C489.551 67.3264 486.446 67.8718 482.81 67.8718C479.204 67.8718 476.062 67.3191 473.386 66.2138C470.725 65.1085 468.645 63.4724 467.147 61.3054C465.664 59.1239 464.885 56.4261 464.813 53.2119H473.953C474.055 54.7099 474.484 55.9607 475.24 56.9642C476.011 57.9531 477.037 58.7021 478.316 59.2111C479.611 59.7056 481.072 59.9528 482.701 59.9528C484.301 59.9528 485.69 59.7202 486.868 59.2548C488.061 58.7894 488.984 58.1422 489.639 57.3132C490.293 56.4842 490.62 55.5316 490.62 54.4554C490.62 53.4519 490.322 52.6084 489.726 51.9248C489.144 51.2413 488.286 50.6596 487.152 50.1796C486.032 49.6997 484.657 49.2634 483.028 48.8707L478.164 47.649C474.397 46.7328 471.423 45.3003 469.241 43.3514C467.06 41.4026 465.976 38.7775 465.991 35.4761C465.976 32.771 466.696 30.4077 468.15 28.3862C469.619 26.3646 471.634 24.7867 474.193 23.6523C476.753 22.5179 479.662 21.9507 482.919 21.9507C486.235 21.9507 489.129 22.5179 491.602 23.6523C494.089 24.7867 496.023 26.3646 497.405 28.3862C498.786 30.4077 499.499 32.7492 499.543 35.4107H490.489Z" fill="#5CB64D"></path></svg>