<svg xmlns="http://www.w3.org/2000/svg" width="644" height="102" viewBox="0 0 644 102" fill="none"><path d="M0 62.9824C0 56.6529 1.4134 50.9993 4.2402 46.0217C7.12845 40.9826 11.0307 37.0803 15.9468 34.315C20.9244 31.4882 26.4859 30.0748 32.6311 30.0748C39.821 30.0748 46.1198 31.9184 51.5276 35.6055C56.9354 39.2926 60.7147 44.3932 62.8655 50.9071H48.0248C46.55 47.8345 44.4606 45.53 41.7567 43.9937C39.1143 42.4574 36.0417 41.6893 32.5389 41.6893C28.7903 41.6893 25.4412 42.5803 22.4915 44.3624C19.6032 46.0831 17.3295 48.5412 15.6703 51.7367C14.0725 54.9322 13.2737 58.6808 13.2737 62.9824C13.2737 67.2226 14.0725 70.9712 15.6703 74.2282C17.3295 77.4237 19.6032 79.9125 22.4915 81.6946C25.4412 83.4152 28.7903 84.2756 32.5389 84.2756C36.0417 84.2756 39.1143 83.5075 41.7567 81.9712C44.4606 80.3734 46.55 78.0382 48.0248 74.9656H62.8655C60.7147 81.541 56.9354 86.6723 51.5276 90.3594C46.1813 93.9851 39.8824 95.7979 32.6311 95.7979C26.4859 95.7979 20.9244 94.4152 15.9468 91.6499C11.0307 88.8231 7.12845 84.9208 4.2402 79.9432C1.4134 74.9656 0 69.312 0 62.9824Z" fill="#5CB64D"></path><path d="M86.793 85.013H107.994V95.2448H73.888V30.9044H86.793V85.013Z" fill="#5CB64D"></path><path d="M129.101 41.3205V57.4517H150.763V67.6835H129.101V84.7365H153.529V95.2448H116.196V30.8122H153.529V41.3205H129.101Z" fill="#5CB64D"></path><path d="M223.052 30.9044L199.454 95.2448H183.784L160.186 30.9044H174.013L191.711 82.0633L209.317 30.9044H223.052Z" fill="#5CB64D"></path><path d="M243.694 41.3205V57.4517H265.356V67.6835H243.694V84.7365H268.121V95.2448H230.789V30.8122H268.121V41.3205H243.694Z" fill="#5CB64D"></path><path d="M313.033 95.2448L298.837 70.1723H292.754V95.2448H279.849V30.9044H303.999C308.977 30.9044 313.217 31.7955 316.72 33.5776C320.223 35.2983 322.834 37.6642 324.555 40.6753C326.337 43.625 327.228 46.9434 327.228 50.6305C327.228 54.8707 325.999 58.7115 323.541 62.1528C321.083 65.5327 317.427 67.8679 312.572 69.1584L327.966 95.2448H313.033ZM292.754 60.4936H303.538C307.041 60.4936 309.653 59.664 311.374 58.0048C313.094 56.2842 313.955 53.9183 313.955 50.9071C313.955 47.9574 313.094 45.6836 311.374 44.0859C309.653 42.4267 307.041 41.5971 303.538 41.5971H292.754V60.4936Z" fill="#5CB64D"></path><path d="M357.731 62.9824C357.731 56.6529 359.144 50.9993 361.971 46.0217C364.859 40.9826 368.761 37.0803 373.677 34.315C378.655 31.4882 384.216 30.0748 390.362 30.0748C397.552 30.0748 403.85 31.9184 409.258 35.6055C414.666 39.2926 418.445 44.3932 420.596 50.9071H405.755C404.281 47.8345 402.191 45.53 399.487 43.9937C396.845 42.4574 393.772 41.6893 390.269 41.6893C386.521 41.6893 383.172 42.5803 380.222 44.3624C377.334 46.0831 375.06 48.5412 373.401 51.7367C371.803 54.9322 371.004 58.6808 371.004 62.9824C371.004 67.2226 371.803 70.9712 373.401 74.2282C375.06 77.4237 377.334 79.9125 380.222 81.6946C383.172 83.4152 386.521 84.2756 390.269 84.2756C393.772 84.2756 396.845 83.5075 399.487 81.9712C402.191 80.3734 404.281 78.0382 405.755 74.9656H420.596C418.445 81.541 414.666 86.6723 409.258 90.3594C403.912 93.9851 397.613 95.7979 390.362 95.7979C384.216 95.7979 378.655 94.4152 373.677 91.6499C368.761 88.8231 364.859 84.9208 361.971 79.9432C359.144 74.9656 357.731 69.312 357.731 62.9824Z" fill="#5CB64D"></path><path d="M444.523 85.013H465.724V95.2448H431.619V30.9044H444.523V85.013Z" fill="#5CB64D"></path><path d="M486.832 41.3205V57.4517H508.494V67.6835H486.832V84.7365H511.259V95.2448H473.927V30.8122H511.259V41.3205H486.832Z" fill="#5CB64D"></path><path d="M562.439 82.9851H536.813L532.573 95.2448H519.023L542.16 30.8122H557.185L580.321 95.2448H566.679L562.439 82.9851ZM558.936 72.6612L549.626 45.7451L540.316 72.6612H558.936Z" fill="#5CB64D"></path><path d="M644 95.2448H631.095L601.875 51.0914V95.2448H588.97V30.8122H601.875L631.095 75.0577V30.8122H644V95.2448Z" fill="#5CB64D"></path><line x1="373.874" y1="101.03" x2="407.393" y2="101.03" stroke="#6DD45C"></line><line x1="380.145" y1="27.7063" x2="401.095" y2="27.7063" stroke="#6DD45C"></line><path d="M378.985 7.41795L382.478 1.46582C382.657 1.15986 382.986 0.971924 383.34 0.971924H389.576H402.193C402.746 0.971924 403.193 1.41964 403.193 1.97192V6.41795C403.193 6.97024 402.746 7.41795 402.193 7.41795H395.628L403.193 17.8927L400.167 16.2812L392.602 12.2525V21.9215H388.82V9.02946H385.037V21.9215L379.742 16.2812L376.431 12.0505C376.153 11.6943 376.148 11.1954 376.419 10.8337L378.985 7.41795Z" fill="#6DD45C"></path></svg>